<?xml version="1.0" encoding="UTF-8" standalone="no"?>
<!-- Created with Inkscape (http://www.inkscape.org/) -->

<svg
   version="1.1"
   id="svg1"
   width="646"
   height="561"
   viewBox="0 0 646 561"
   sodipodi:docname="bombcell.svg"
   inkscape:version="1.3 (0e150ed6c4, 2023-07-21)"
   xmlns:inkscape="http://www.inkscape.org/namespaces/inkscape"
   xmlns:sodipodi="http://sodipodi.sourceforge.net/DTD/sodipodi-0.dtd"
   xmlns:xlink="http://www.w3.org/1999/xlink"
   xmlns="http://www.w3.org/2000/svg"
   xmlns:svg="http://www.w3.org/2000/svg">
  <defs
     id="defs1">
    <linearGradient
       id="linearGradient89"
       inkscape:collect="always">
      <stop
         style="stop-color:#7d7d7e;stop-opacity:1;"
         offset="0"
         id="stop89" />
      <stop
         style="stop-color:#8e8e8f;stop-opacity:1;"
         offset="1"
         id="stop90" />
    </linearGradient>
    <linearGradient
       id="linearGradient87"
       inkscape:collect="always">
      <stop
         style="stop-color:#303030;stop-opacity:1;"
         offset="0"
         id="stop87" />
      <stop
         style="stop-color:#585958;stop-opacity:1;"
         offset="1"
         id="stop88" />
    </linearGradient>
    <linearGradient
       id="linearGradient74"
       inkscape:collect="always">
      <stop
         style="stop-color:#dfdfb3;stop-opacity:1;"
         offset="0"
         id="stop74" />
      <stop
         style="stop-color:#fbe50e;stop-opacity:1;"
         offset="0.06799711"
         id="stop76" />
      <stop
         style="stop-color:#f58816;stop-opacity:1;"
         offset="0.21849898"
         id="stop77" />
      <stop
         style="stop-color:#ed0000;stop-opacity:1;"
         offset="1"
         id="stop75" />
    </linearGradient>
    <linearGradient
       id="linearGradient73"
       inkscape:collect="always">
      <stop
         style="stop-color:#f86730;stop-opacity:1;"
         offset="0"
         id="stop72" />
      <stop
         style="stop-color:#fd4c2b;stop-opacity:1;"
         offset="1"
         id="stop73" />
    </linearGradient>
    <linearGradient
       id="linearGradient69"
       inkscape:collect="always">
      <stop
         style="stop-color:#f8b030;stop-opacity:1;"
         offset="0"
         id="stop70" />
      <stop
         style="stop-color:#fdb32b;stop-opacity:1;"
         offset="1"
         id="stop71" />
    </linearGradient>
    <linearGradient
       id="linearGradient67"
       inkscape:collect="always">
      <stop
         style="stop-color:#ecc73c;stop-opacity:1;"
         offset="0"
         id="stop68" />
      <stop
         style="stop-color:#f3f335;stop-opacity:1;"
         offset="1"
         id="stop69" />
    </linearGradient>
    <linearGradient
       id="linearGradient66"
       inkscape:collect="always">
      <stop
         style="stop-color:#fefdf8;stop-opacity:1;"
         offset="0"
         id="stop66" />
      <stop
         style="stop-color:#fef5c6;stop-opacity:1;"
         offset="1"
         id="stop67" />
    </linearGradient>
    <linearGradient
       id="linearGradient65"
       inkscape:collect="always">
      <stop
         style="stop-color:#dbbf4d;stop-opacity:1;"
         offset="0"
         id="stop64" />
      <stop
         style="stop-color:#e7a941;stop-opacity:1;"
         offset="1"
         id="stop65" />
    </linearGradient>
    <linearGradient
       id="linearGradient63"
       inkscape:collect="always">
      <stop
         style="stop-color:#dbbf4d;stop-opacity:1;"
         offset="0"
         id="stop62" />
      <stop
         style="stop-color:#ffbf29;stop-opacity:1;"
         offset="1"
         id="stop63" />
    </linearGradient>
    <linearGradient
       id="linearGradient55"
       inkscape:collect="always">
      <stop
         style="stop-color:#dbbf4d;stop-opacity:1;"
         offset="0"
         id="stop54" />
      <stop
         style="stop-color:#f8a630;stop-opacity:0.996732;"
         offset="1"
         id="stop55" />
    </linearGradient>
    <linearGradient
       id="linearGradient53"
       inkscape:collect="always">
      <stop
         style="stop-color:#dbbf4d;stop-opacity:1;"
         offset="0"
         id="stop52" />
      <stop
         style="stop-color:#f69a32;stop-opacity:0.92810458;"
         offset="1"
         id="stop53" />
    </linearGradient>
    <linearGradient
       id="linearGradient44"
       inkscape:collect="always">
      <stop
         style="stop-color:#dbbf4d;stop-opacity:1;"
         offset="0"
         id="stop44" />
      <stop
         style="stop-color:#dd9b4b;stop-opacity:1;"
         offset="1"
         id="stop45" />
    </linearGradient>
    <linearGradient
       id="linearGradient26"
       inkscape:collect="always">
      <stop
         style="stop-color:#343534;stop-opacity:1;"
         offset="0"
         id="stop26" />
      <stop
         style="stop-color:#9fa0a1;stop-opacity:1;"
         offset="1"
         id="stop27" />
    </linearGradient>
    <linearGradient
       inkscape:collect="always"
       xlink:href="#linearGradient26"
       id="linearGradient27"
       x1="323.09763"
       y1="293.52304"
       x2="244.96477"
       y2="223.61429"
       gradientUnits="userSpaceOnUse"
       gradientTransform="matrix(0.83888769,0,0,0.86712177,42.158056,29.896483)" />
    <linearGradient
       inkscape:collect="always"
       xlink:href="#linearGradient63"
       id="linearGradient45"
       x1="272.59162"
       y1="172.76893"
       x2="283.82164"
       y2="172.76893"
       gradientUnits="userSpaceOnUse"
       gradientTransform="rotate(6.1642833,254.49149,198.94274)" />
    <linearGradient
       inkscape:collect="always"
       xlink:href="#linearGradient65"
       id="linearGradient49"
       x1="274.82844"
       y1="177.97925"
       x2="286.20066"
       y2="177.97925"
       gradientUnits="userSpaceOnUse"
       gradientTransform="matrix(1.0310926,0.05923369,-0.05910572,0.92104205,2.9991426,-0.39456659)" />
    <linearGradient
       inkscape:collect="always"
       xlink:href="#linearGradient44"
       id="linearGradient50"
       x1="276.92305"
       y1="183.32996"
       x2="288.5083"
       y2="183.32996"
       gradientUnits="userSpaceOnUse"
       gradientTransform="rotate(3.8985923,268.3792,185.73813)" />
    <linearGradient
       inkscape:collect="always"
       xlink:href="#linearGradient55"
       id="linearGradient51"
       x1="259.04255"
       y1="151.3057"
       x2="273.25689"
       y2="151.3057"
       gradientUnits="userSpaceOnUse"
       gradientTransform="rotate(-6.789957,287.95931,114.22161)" />
    <linearGradient
       inkscape:collect="always"
       xlink:href="#linearGradient53"
       id="linearGradient52"
       x1="278.10155"
       y1="188.74869"
       x2="289.85379"
       y2="188.74869"
       gradientUnits="userSpaceOnUse"
       gradientTransform="rotate(3.9194071,282.03475,180.78438)" />
    <radialGradient
       inkscape:collect="always"
       xlink:href="#linearGradient66"
       id="radialGradient67"
       cx="392.22116"
       cy="73.48568"
       fx="392.22116"
       fy="73.48568"
       r="10.06243"
       gradientTransform="matrix(2.0725139,-0.02130874,-0.02023504,2.0557218,-563.08501,-22.118247)"
       gradientUnits="userSpaceOnUse" />
    <radialGradient
       inkscape:collect="always"
       xlink:href="#linearGradient67"
       id="radialGradient69"
       cx="326.53602"
       cy="120.10674"
       fx="326.53602"
       fy="120.10674"
       r="19.677639"
       gradientTransform="matrix(1.3822893,0,0,1.394782,-204.77897,-52.063792)"
       gradientUnits="userSpaceOnUse" />
    <radialGradient
       inkscape:collect="always"
       xlink:href="#linearGradient69"
       id="radialGradient71"
       cx="318.0939"
       cy="69.374143"
       fx="318.0939"
       fy="69.374143"
       r="29.0587"
       gradientTransform="matrix(1.9613655,0.02909396,0.02344074,1.4787344,-378.95924,4.3574075)"
       gradientUnits="userSpaceOnUse" />
    <radialGradient
       inkscape:collect="always"
       xlink:href="#linearGradient73"
       id="radialGradient71-4"
       cx="318.0939"
       cy="69.374146"
       fx="318.0939"
       fy="69.374146"
       r="29.058701"
       gradientTransform="matrix(2.4120931,-0.91592034,0.97546302,1.7421254,-589.39358,286.58375)"
       gradientUnits="userSpaceOnUse" />
    <linearGradient
       inkscape:collect="always"
       xlink:href="#linearGradient74"
       id="linearGradient75"
       x1="323.69586"
       y1="287.25845"
       x2="516.22253"
       y2="284.75845"
       gradientUnits="userSpaceOnUse" />
    <linearGradient
       inkscape:collect="always"
       xlink:href="#linearGradient87"
       id="linearGradient88"
       x1="294.43909"
       y1="315.01456"
       x2="258.62851"
       y2="306.26456"
       gradientUnits="userSpaceOnUse" />
    <linearGradient
       inkscape:collect="always"
       xlink:href="#linearGradient89"
       id="linearGradient90"
       x1="237.85208"
       y1="284.07843"
       x2="226.40602"
       y2="267.45343"
       gradientUnits="userSpaceOnUse" />
    <linearGradient
       inkscape:collect="always"
       xlink:href="#linearGradient63"
       id="linearGradient91"
       gradientUnits="userSpaceOnUse"
       gradientTransform="rotate(0.07781604,1821.3852,1229.8345)"
       x1="272.59162"
       y1="172.76893"
       x2="283.82164"
       y2="172.76893" />
    <linearGradient
       inkscape:collect="always"
       xlink:href="#linearGradient63"
       id="linearGradient91-3"
       gradientUnits="userSpaceOnUse"
       gradientTransform="rotate(-6.5182061,223.07163,168.30578)"
       x1="272.59161"
       y1="172.76894"
       x2="283.82162"
       y2="172.76894" />
    <linearGradient
       inkscape:collect="always"
       xlink:href="#linearGradient63"
       id="linearGradient92"
       gradientUnits="userSpaceOnUse"
       gradientTransform="rotate(-11.688433,227.48248,175.76662)"
       x1="272.59161"
       y1="172.76894"
       x2="283.82162"
       y2="172.76894" />
    <linearGradient
       inkscape:collect="always"
       xlink:href="#linearGradient63"
       id="linearGradient93"
       gradientUnits="userSpaceOnUse"
       gradientTransform="rotate(-17.066774,228.16639,177.94604)"
       x1="272.59161"
       y1="172.76894"
       x2="283.82162"
       y2="172.76894" />
  </defs>
  <sodipodi:namedview
     id="namedview1"
     pagecolor="#ffffff"
     bordercolor="#000000"
     borderopacity="0.25"
     inkscape:showpageshadow="2"
     inkscape:pageopacity="0.0"
     inkscape:pagecheckerboard="0"
     inkscape:deskcolor="#d1d1d1"
     showguides="true"
     inkscape:zoom="1.4142136"
     inkscape:cx="205.06097"
     inkscape:cy="184.20132"
     inkscape:window-width="1920"
     inkscape:window-height="1137"
     inkscape:window-x="-32000"
     inkscape:window-y="-32000"
     inkscape:window-maximized="0"
     inkscape:current-layer="g1">
    <sodipodi:guide
       position="-237.75417,214.66518"
       orientation="1,0"
       id="guide8"
       inkscape:locked="false" />
  </sodipodi:namedview>
  <g
     inkscape:groupmode="layer"
     inkscape:label="Image"
     id="g1">
    <rect
       style="fill:#000000;fill-opacity:1;stroke:#ffffff;stroke-width:0.614914;stroke-dasharray:none;stroke-opacity:1"
       id="rect84"
       width="427.31949"
       height="327.61823"
       x="-336.05493"
       y="103.39109" />
    <g
       id="g72"
       style="stroke:none;stroke-width:1;stroke-dasharray:none"
       inkscape:export-filename="bombcell_clean.svg"
       inkscape:export-xdpi="300"
       inkscape:export-ydpi="300">
      <path
         style="fill:#585656;fill-opacity:1;stroke:none;stroke-width:1;stroke-dasharray:none;stroke-opacity:1"
         d="m 254.24714,228.45514 c -4.30483,-6.82795 -14.07952,-2.68865 -21.97973,-7.49825 -7.90021,-4.80961 -17.10357,-21.56744 -25.1199,-28.51857 -8.01634,-6.95113 -15.74996,-10.98282 -26.92674,-12.83555 -11.17679,-1.85274 -34.21674,2.22847 -35.83609,2.42649 -1.61935,0.19802 -10.92831,5.79384 -10.6105,7.19517 0.31777,1.40134 12.75282,-1.79845 16.1682,-1.98617 3.41539,-0.18771 17.12573,-3.10693 26.06492,-0.37396 8.93919,2.73296 16.9726,9.77055 24.03223,17.26942 7.05962,7.49888 12.70144,18.35985 20.10604,28.93414 7.4046,10.57428 5.09866,38.98969 13.48468,36.48047 8.38602,-2.50922 24.92171,-34.26524 20.61689,-41.09319 z"
         id="path1"
         sodipodi:nodetypes="zzzzzzzzzzzz"
         inkscape:export-filename="bombcell_clean.svg"
         inkscape:export-xdpi="300"
         inkscape:export-ydpi="300" />
      <path
         style="fill:#666767;fill-opacity:1;stroke:none;stroke-width:1;stroke-dasharray:none;stroke-opacity:1"
         d="m 302.14248,223.84281 c 1.48304,-4.31321 46.54918,-44.57104 51.959,-51.48313 0.24791,-10.0779 -1.27098,-22.07834 -0.98889,-25.28415 0.28209,-3.20581 3.05161,-15.77822 4.45471,-15.4059 1.31471,0.10784 1.42491,13.15541 1.52915,18.90957 0.10424,5.75416 4.82026,11.56876 5.88578,12.05268 1.06552,0.48392 18.77281,-15.21256 20.04224,-13.4895 1.26943,1.72306 -11.77938,8.12725 -10.45245,14.0406 1.73256,7.72099 27.25818,7.83229 32.29338,6.08426 5.42424,-1.88309 11.94728,-10.07635 12.48054,-9.51641 0.38631,0.40563 -1.27235,6.51506 -7.07669,10.48598 -14.10115,9.64699 -39.75602,-1.22469 -45.49756,0.7465 -1.42244,0.48835 -16.30728,16.40726 -25.68757,28.66738 -9.38029,12.26012 -25.02879,44.8751 -30.0852,45.57343 -5.05642,0.69833 -10.33948,-17.06809 -8.85644,-21.38131 z"
         id="path4"
         sodipodi:nodetypes="zczczczzzsszzzz" />
      <path
         style="fill:#3f403f;fill-opacity:1;stroke:none;stroke-width:1;stroke-dasharray:none;stroke-opacity:1"
         d="m 308.5839,242.4944 c 2.06409,-2.36346 61.65247,-0.02 62.74335,-5.2853 0.72558,-3.50215 2.07719,-11.17773 4.50603,-14.0664 0.82339,-0.97927 2.74693,-0.52969 3.49599,-0.36517 2.95865,0.64982 -1.41687,15.34463 2.468,18.7554 2.24905,1.97458 45.22359,13.72554 47.06508,13.53798 7.9069,-0.80533 29.33434,-26.26009 41.65378,-30.4213 6.54519,-2.21081 20.15623,-2.18833 19.96885,-0.62403 -0.18738,1.5643 -17.33546,5.34736 -23.86902,11.23248 -7.82985,7.05276 -24.83564,19.34699 -16.36691,27.04728 2.08041,1.89164 4.94528,4.49993 8.00358,5.51298 3.57749,1.18502 17.47711,8.09593 24.28979,12.5838 9.15888,6.03344 29.91636,11.05677 29.42119,12.74226 -0.49517,1.68549 -23.03867,-3.13332 -32.71111,-9.21223 -9.67244,-6.07891 -18.44488,-7.84879 -22.93298,-8.58037 -4.4881,-0.73158 -21.76295,-9.14124 -37.90962,-14.50862 -16.14667,-5.36738 -41.23086,-11.26515 -59.15979,-11.11892 -17.92893,0.14623 -42.90103,15.67416 -44.92992,13.41658 -2.02889,-2.25758 -7.80038,-18.28296 -5.73629,-20.64642 z"
         id="path6"
         sodipodi:nodetypes="zssszzzzassszzzzzzz" />
      <path
         style="fill:none;fill-opacity:1;stroke:#d4d4d4;stroke-width:1;stroke-dasharray:none;stroke-opacity:1"
         d="m 227.99984,269.17384 c 0,0 -0.83084,-7.34825 -0.0569,-13.47149 0.70374,-5.56807 2.70691,-11.02367 3.36769,-12.82185 1.33151,-3.62345 6.22978,-11.79324 9.48775,-15.33623 1.17147,-1.27395 4.54265,-4.78583 8.68032,-7.04688 5.42927,-2.96684 12.01612,-4.61606 12.01612,-4.61606"
         id="path82"
         sodipodi:nodetypes="cssssc" />
      <path
         style="fill:none;fill-opacity:1;stroke:#a9a9a9;stroke-width:1;stroke-dasharray:none;stroke-opacity:1"
         d="m 294.64704,215.49719 c 0,0 7.18513,1.44441 10.46984,2.9879 3.4687,1.62993 6.82493,3.8775 9.4858,6.49742 2.58184,2.54212 4.75892,6.42548 7.11521,9.92821 1.48947,2.21415 7.03923,14.67068 8.22943,22.72618 0.27065,1.83182 0.0131,5.56071 0.0881,8.92113 0.0508,2.27406 -2.1354,12.69371 -1.61835,9.41901"
         id="path84"
         sodipodi:nodetypes="cassssc" />
      <path
         style="fill:none;fill-opacity:1;stroke:#858585;stroke-width:1;stroke-dasharray:none;stroke-opacity:1"
         d="m 260.9931,309.4834 c -3.90378,-2.15128 -9.93876,-6.20137 -14.22898,-10.14029 -4.7822,-4.39061 -12.61371,-14.83969 -12.61371,-14.83969"
         id="path81"
         sodipodi:nodetypes="cac" />
      <path
         style="fill:url(#linearGradient27);fill-opacity:1;stroke:none;stroke-width:0.852888;stroke-dasharray:none;stroke-opacity:1"
         d="m 277.3208,313.34424 c 18.71163,0.66162 38.25553,-13.66022 47.53741,-29.9209 6.42953,-11.26372 6.07779,-26.91571 1.1027,-38.89314 -5.3017,-12.76374 -13.62116,-25.93026 -30.19424,-28.41651 l 0.36258,-16.9546 c 0,0 -10.35267,4.4909 -17.25844,4.65421 -6.90576,0.16332 -17.78856,-4.73709 -17.78856,-4.73709 v 17.15469 c -16.20402,4.22994 -24.04551,14.54848 -29.32562,26.65776 -4.97698,11.41408 -5.29131,26.27746 0.39785,37.35379 8.52822,16.60372 26.51213,32.4422 45.16632,33.10179 z"
         id="path7"
         sodipodi:nodetypes="aaacczccaaa"
         inkscape:label="body" />
      <path
         style="fill:url(#linearGradient88);fill-opacity:1;stroke:none;stroke-width:1;stroke-dasharray:none;stroke-opacity:1"
         d="m 259.45557,307.24714 c 0.5959,2.13331 10.22149,33.10438 6.98166,45.61398 -3.23983,12.5096 -7.15697,15.38431 -8.11235,23.86902 -0.95538,8.48471 -2.91144,31.11725 7.0203,29.40725 1.30949,-0.22546 -2.26742,-10.99866 -2.19732,-22.38319 0.0705,-11.44527 8.16958,-23.16354 10.46567,-23.71678 1.66437,-0.40103 2.21909,4.56148 3.74416,12.48054 1.52507,7.91906 5.26019,19.56529 4.49805,26.07049 -0.76214,6.5052 -13.11572,31.67525 -11.98637,32.58802 1.12935,0.91277 15.49814,-24.88747 16.84872,-33.22943 1.35058,-8.34196 -3.3132,-35.69644 -4.21218,-41.49777 -0.89898,-5.80133 3.35933,-34.73096 12.92284,-48.60526 1.78287,-2.75195 -36.56908,-2.73018 -35.97318,-0.59687 z"
         id="path3"
         sodipodi:nodetypes="zzzssszzzzzsz" />
      <path
         style="fill:url(#linearGradient90);fill-opacity:1;stroke:none;stroke-width:1;stroke-dasharray:none;stroke-opacity:1"
         d="m 231.58043,267.13277 c -2.40397,-1.52564 -33.14279,16.52156 -52.36059,26.65862 -9.77408,-1.96108 -35.40336,-8.50503 -39.91695,-9.61531 -4.51358,-1.11027 -26.58819,-5.21545 -26.83966,-3.71662 -0.25147,1.49883 21.49609,6.13087 25.87799,7.57758 4.3819,1.44671 21.26104,9.76044 32.67995,14.93711 -3.10635,5.87466 -13.40914,21.6839 -19.24426,28.73121 -1.82157,2.19998 -19.38092,27.16486 -16.98714,28.98207 2.39378,1.81721 35.28977,-40.40077 48.61785,-54.70022 13.32808,-14.29945 47.0807,-20.06513 52.53832,-20.73321 5.45762,-0.66808 -1.96154,-16.59559 -4.36551,-18.12123 z"
         id="path2"
         sodipodi:nodetypes="zczzzczzzzz" />
      <path
         style="fill:#565756;fill-opacity:1;stroke:none;stroke-width:0.809214;stroke-dasharray:none;stroke-opacity:1"
         d="m 260.78637,199.2157 c 5.57768,-3.8401 10.57699,-4.21119 17.56952,-4.26286 6.99253,-0.0517 13.31113,1.67891 18.17622,4.28735 -4.95439,2.02334 -11.50372,4.49729 -18.35532,4.49334 -6.8516,-0.004 -11.33725,-1.59715 -17.39042,-4.51783 z"
         id="path8"
         sodipodi:nodetypes="czczc" />
      <path
         style="fill:#343534;fill-opacity:1;stroke:none;stroke-width:1;stroke-dasharray:none;stroke-opacity:1"
         d="m 326.05395,268.95551 c 1.97651,-1.96558 -1.93239,-1.9506 13.10456,34.00945 15.03695,35.96005 32.07521,39.73101 49.29811,50.23416 17.22291,10.50314 35.4343,18.49255 49.3078,20.64854 13.8735,2.15599 18.07883,2.98672 29.22818,2.98672 11.14935,0 21.5312,2.04001 33.80314,0.44125 12.27194,-1.59876 35.43103,-11.51631 36.49125,-10.46028 1.06022,1.05603 -21.75677,12.0012 -35.02858,15.37267 -13.27181,3.37147 -28.20175,-1.11313 -37.91096,0.2566 -9.70921,1.36973 -12.35178,1.77477 -17.87202,6.09811 3.06346,0.64446 9.54438,2.0074 12.74273,2.95383 4.34056,1.28443 17.51259,7.77958 16.47945,8.86807 -0.96334,1.01494 -13.27112,-4.16592 -17.96293,-5.26255 -4.11486,-0.96179 -18.50258,-1.46376 -19.04391,-0.82955 -1.12592,1.31912 -1.3021,13.21662 1.87208,19.96885 3.17418,6.75223 18.13169,15.82868 17.47275,17.47275 -0.65894,1.64407 -18.68135,-12.09353 -21.87006,-16.67414 -3.3325,-4.78716 -4.41647,-10.39547 -11.35936,-21.39149 -6.94289,-10.99602 -46.25199,-30.28476 -53.97831,-31.71302 -7.2583,6.21608 -16.31028,28.63399 -18.09678,44.3059 -1.7865,15.67191 13.74783,42.39167 11.7005,43.05784 -2.04733,0.66617 -19.12489,-17.35601 -22.46496,-33.07341 -3.34007,-15.7174 4.96013,-37.66421 9.98443,-55.53838 -6.20818,-13.66199 -16.90323,-33.50949 -23.71301,-44.30589 -6.80978,-10.7964 -28.49922,-11.74987 -28.39322,-14.97665 0.10716,-3.2621 24.4086,-30.65881 26.20912,-32.44938 z"
         id="path5"
         sodipodi:nodetypes="ssssssssscsssssssscssscsss" />
      <path
         style="fill:none;fill-opacity:1;stroke:#919191;stroke-width:1;stroke-dasharray:none;stroke-opacity:1"
         d="m 288.37835,300.62487 c 0,0 6.80256,0.99309 10.14043,1.79408 1.62212,0.38926 4.61135,1.40572 5.9059,1.83338 0.43519,0.14377 0.52519,0.26365 0.52519,0.26365"
         id="path85"
         sodipodi:nodetypes="cssc" />
    </g>
    <g
       id="g71"
       transform="matrix(0.54703859,-0.12021062,0.12021062,0.54703859,120.63064,123.91168)">
      <path
         style="fill:url(#radialGradient71-4);stroke:none;stroke-width:2.51476;stroke-dasharray:none"
         d="m 233.75731,122.3124 -46.5972,-8.20837 51.05165,-0.91414 -16.66338,-38.223783 28.7979,37.831073 18.35947,-40.763678 -7.83171,43.807368 c 19.91098,-5.4951 6.98471,-3.4843 49.58105,-8.29824 l -59.78753,22.45646 31.21092,40.8956 -19.80314,-42.68227 41.84669,3.24513 -39.74292,-7.17793 -15.40573,2.52451 4.70219,19.03789 -8.68699,-14.01525 -23.23893,33.8805 z"
         id="path15-3"
         sodipodi:nodetypes="cccccccccccccccccc" />
      <path
         style="fill:url(#radialGradient71);stroke:none;stroke-width:1.89709;stroke-dasharray:none"
         d="m 236.3416,117.26453 -29.77862,-25.919007 37.04059,20.874017 5.19872,-38.711317 5.52894,40.015477 32.24352,-30.867338 -22.4043,34.019038 39.14032,8.59591 -40.09554,-1.31041 17.33987,32.46162 -24.62453,-28.84828 -2.25108,18.61221 -6.73919,-16.45548 -14.2312,28.55816 7.6094,-31.37588 -27.13934,24.78844 c 13.92964,-18.57085 12.28173,-19.66527 19.27087,-29.05594 l -42.7645,-5.6439 z"
         id="path15"
         sodipodi:nodetypes="ccccccccccccccccccc" />
      <path
         style="fill:url(#radialGradient69);stroke:none;stroke-width:1.38229;stroke-dasharray:none"
         d="m 237.24072,112.74126 -7.11633,-20.809868 13.58572,16.389128 7.87109,-20.055111 0.97041,21.672461 19.62382,-5.28335 -13.90919,10.89015 15.09524,11.86055 -19.0847,-5.93028 1.40171,17.89865 -7.33198,-14.87959 -5.17552,18.22211 -0.53912,-15.85001 -13.0466,11.21362 6.90068,-16.28131 -16.71258,4.52859 15.09524,-10.13539 -14.8796,-8.94933 z"
         id="path14" />
      <path
         style="fill:url(#radialGradient67);stroke:none;stroke-width:2.11805;stroke-dasharray:none"
         d="m 240.2827,115.18521 -4.73189,-11.93932 9.93337,9.0155 5.13288,-12.378432 0.82704,14.512152 12.82292,-5.36605 -6.87796,9.01948 11.73823,6.29542 -15.80141,-4.05867 4.83869,17.51011 -11.14854,-16.9387 1.57717,20.41399 -4.48543,-20.55293 -6.44449,14.24922 3.55117,-15.9079 -13.77958,4.02509 z"
         id="path13" />
    </g>
    <g
       id="g65"
       transform="matrix(0.88312424,0.12295502,-0.12295502,0.88312424,51.695956,-6.560272)"
       style="stroke:#ffffff;stroke-width:0.590645;stroke-dasharray:none">
      <path
         style="fill:url(#linearGradient45);fill-opacity:1;stroke:#ffffff;stroke-width:0.590645;stroke-dasharray:none"
         d="m 276.27087,182.41351 c -0.5584,-1.05633 -1.26916,-3.64487 -0.56269,-5.26077 1.264,-2.89115 5.5269,-3.71226 7.59317,-5.6526 1.14511,-1.07533 1.54634,-1.95324 2.31153,-3.24167 0.90486,1.24112 1.11181,4.27538 0.20844,6.09734 -1.29936,2.62064 -4.68877,3.54036 -7.16215,5.07035 -0.99144,0.61329 -1.52801,0.86028 -2.3883,2.98735 z"
         id="path10"
         sodipodi:nodetypes="cascasc" />
      <path
         style="fill:url(#linearGradient91);fill-opacity:1;stroke:#ffffff;stroke-width:0.590645;stroke-dasharray:none"
         d="m 275.79707,178.0703 c -0.66726,-0.99116 -1.64847,-3.48975 -1.11731,-5.17144 0.95033,-3.00888 5.10214,-4.27736 6.95103,-6.42584 1.02463,-1.19068 1.33052,-2.10619 1.95478,-3.46849 1.03136,1.13818 1.55886,4.1334 0.85376,6.04088 -1.01417,2.74363 -4.28695,4.01755 -6.58416,5.80116 -0.92084,0.71495 -1.42819,1.01744 -2.0581,3.22373 z"
         id="path10-1"
         sodipodi:nodetypes="cascasc" />
      <path
         style="fill:url(#linearGradient91-3);fill-opacity:1;stroke:#ffffff;stroke-width:0.590645;stroke-dasharray:none"
         d="m 274.46395,173.42309 c -0.83741,-3.55932 -1.21112,-3.10555 -0.87665,-4.83713 0.59843,-3.09812 4.67109,-4.15959 6.26095,-6.50622 0.88107,-1.3005 1.07978,-2.24509 1.54342,-3.67008 1.15527,1.01218 2.10568,3.94887 1.54201,5.90283 -0.78566,2.72349 -4.12415,3.78292 -6.20128,5.8186 -0.83262,0.81599 -1.89614,1.02796 -2.26845,3.292 z"
         id="path10-1-8"
         sodipodi:nodetypes="csscasc"
         inkscape:transform-center-x="-7.3526261"
         inkscape:transform-center-y="-3.7149363" />
      <path
         style="fill:url(#linearGradient92);fill-opacity:1;stroke:#ffffff;stroke-width:0.590645;stroke-dasharray:none"
         d="m 273.29597,169.81934 c -1.15475,-3.46937 -1.48605,-2.98377 -1.30898,-4.73845 0.31681,-3.13944 4.27724,-4.5636 5.64917,-7.04395 0.76029,-1.37461 0.87307,-2.33326 1.20641,-3.79423 1.24178,0.90395 2.45296,3.74305 2.06767,5.73985 -0.53704,2.78321 -3.76647,4.13918 -5.65171,6.35376 -0.7557,0.8877 -1.79579,1.19465 -1.96256,3.48302 z"
         id="path10-1-8-3"
         sodipodi:nodetypes="csscasc"
         inkscape:transform-center-x="-7.0096136"
         inkscape:transform-center-y="-4.3306251" />
      <path
         style="fill:url(#linearGradient93);fill-opacity:1;stroke:#ffffff;stroke-width:0.590645;stroke-dasharray:none"
         d="m 271.92731,165.84804 c -1.47485,-3.34587 -1.75918,-2.83135 -1.74736,-4.59489 0.0211,-3.15532 3.83066,-4.94443 4.96406,-7.54246 0.62809,-1.43982 0.65053,-2.40482 0.84545,-3.89061 1.32106,0.78358 2.79301,3.49665 2.59658,5.52078 -0.27379,2.8213 -3.36191,4.47399 -5.03127,6.85554 -0.66917,0.95462 -1.67591,1.3577 -1.62746,3.65164 z"
         id="path10-1-8-6"
         sodipodi:nodetypes="csscasc"
         inkscape:transform-center-x="-6.6124601"
         inkscape:transform-center-y="-4.9336357" />
      <path
         style="fill:url(#linearGradient49);fill-opacity:1;stroke:#ffffff;stroke-width:0.576652;stroke-dasharray:none"
         d="m 277.05965,186.47125 c -0.60833,-0.96323 -1.27299,-2.94464 -0.67507,-4.27604 1.21085,-2.69615 5.5937,-3.53885 7.66826,-5.37165 1.14972,-1.01573 1.53745,-1.83402 2.28853,-3.0386 0.97156,1.12664 1.33588,4.34607 0.267,6.15705 -1.36553,2.31353 -5.0591,2.316 -7.44059,4.16286 -0.85205,0.66078 -0.79538,0.67869 -2.10813,2.36638 z"
         id="path10-8"
         sodipodi:nodetypes="cascasc" />
      <path
         style="fill:url(#linearGradient50);fill-opacity:1;stroke:#ffffff;stroke-width:0.590645;stroke-dasharray:none"
         d="m 277.89033,190.73855 c -0.48429,-1.0923 -0.91481,-3.28745 -0.1969,-4.67038 1.45387,-2.80049 5.76952,-3.32268 7.96456,-5.11608 1.21646,-0.99387 1.01686,-1.88705 1.86901,-3.11971 0.81721,1.30051 1.24799,4.87825 0.0636,6.81806 -1.44138,2.36076 -5.18791,2.08367 -7.41625,3.72234 -0.88308,0.64938 -0.83903,0.66168 -2.28406,2.36577 z"
         id="path10-8-3"
         sodipodi:nodetypes="cascaac" />
      <path
         style="fill:url(#linearGradient52);stroke:#ffffff;stroke-width:0.590645;stroke-dasharray:none"
         d="m 278.0406,191.38719 c 0.57126,-1.13484 1.27362,-1.95023 2.39221,-2.82742 0.86144,-0.67553 3.53806,-1.08713 5.1056,-1.83408 1.79679,-0.85619 2.61228,-1.99771 3.16172,-2.70115 0.24699,0.83245 0.36382,6.19688 -0.17101,7.04459 -0.53487,0.8477 -4.60134,2.03517 -6.11247,2.20045 -1.51113,0.16529 -2.22686,0.15465 -3.32949,-0.48615 z"
         id="path11"
         sodipodi:nodetypes="cssczzcc" />
      <path
         style="fill:url(#linearGradient51);fill-opacity:1;stroke:#ffffff;stroke-width:0.590645;stroke-dasharray:none"
         d="m 269.97529,160.76375 c 1.43753,-3.56998 2.53713,-3.9135 4.08188,-5.83554 0.88173,-1.09709 1.93355,-3.51013 1.99497,-4.8229 -1.67465,-0.50806 -3.87803,-1.73957 -3.87803,-1.73957 0,0 0.39451,1.93664 0.85678,3.92098 -1.85005,-1.16236 -3.4803,-2.27475 -3.4803,-2.27475 l 1.45193,3.79788 -2.91098,-2.70292 c 0,0 -0.43463,3.68093 1.88375,9.65682 z"
         id="path12"
         sodipodi:nodetypes="csccccccc" />
    </g>
    <path
       style="fill:none;stroke:none;stroke-width:3.53764"
       d="m 308.6407,267.83436 c 0,0 4.75261,8.92686 9.72693,21.08093 17.89737,43.72979 45.37182,58.38464 64.15776,68.92105 24.91185,13.97225 28.45432,20.86672 63.19771,20.95813 18.2443,0.048 42.15228,0.11962 58.40566,-2.27912 23.63136,-3.48762 12.28503,-1.82215 33.45521,-10.92844"
       id="path9"
       sodipodi:nodetypes="cssssc" />
    <text
       xml:space="preserve"
       style="font-size:17.3333px;font-family:Consolas;-inkscape-font-specification:Consolas;text-align:center;text-anchor:middle;white-space:pre;fill:url(#linearGradient75);fill-opacity:1;stroke:none;stroke-width:1.76352;stroke-dasharray:none;stroke-opacity:1"
       id="text8"
       transform="translate(18.743059,-8.095776)"><textPath
         xlink:href="#path9"
         startOffset="50%"
         id="textPath9"
         style="font-style:normal;font-variant:normal;font-weight:normal;font-stretch:normal;font-size:53.3333px;font-family:Gadugi;-inkscape-font-specification:Gadugi;font-variant-ligatures:normal;font-variant-caps:normal;font-variant-numeric:normal;font-variant-east-asian:normal;fill:url(#linearGradient75);fill-opacity:1;stroke:none;stroke-width:1.76352;stroke-dasharray:none;stroke-opacity:1">Bombcell</textPath></text>
  </g>
</svg>
