<?xml version="1.0" encoding="UTF-8" standalone="no"?>
<!-- Created with Inkscape (http://www.inkscape.org/) -->

<svg
   width="125.77699mm"
   height="102.73046mm"
   viewBox="0 0 125.77699 102.73046"
   version="1.1"
   id="svg1"
   inkscape:version="1.3.2 (1:1.3.2+202311252150+091e20ef0f)"
   sodipodi:docname="bombcell_logo_crop_circle.svg"
   xml:space="preserve"
   inkscape:export-filename="bombcell_logo_crop.png"
   inkscape:export-xdpi="500"
   inkscape:export-ydpi="500"
   xmlns:inkscape="http://www.inkscape.org/namespaces/inkscape"
   xmlns:sodipodi="http://sodipodi.sourceforge.net/DTD/sodipodi-0.dtd"
   xmlns:xlink="http://www.w3.org/1999/xlink"
   xmlns="http://www.w3.org/2000/svg"
   xmlns:svg="http://www.w3.org/2000/svg"><sodipodi:namedview
     id="namedview1"
     pagecolor="#ffffff"
     bordercolor="#666666"
     borderopacity="1.0"
     inkscape:showpageshadow="2"
     inkscape:pageopacity="0.0"
     inkscape:pagecheckerboard="0"
     inkscape:deskcolor="#d1d1d1"
     inkscape:document-units="mm"
     inkscape:zoom="1.2935185"
     inkscape:cx="182.06156"
     inkscape:cy="204.86758"
     inkscape:window-width="1600"
     inkscape:window-height="788"
     inkscape:window-x="1080"
     inkscape:window-y="484"
     inkscape:window-maximized="1"
     inkscape:current-layer="g65"
     showgrid="false" /><defs
     id="defs1"><linearGradient
       id="linearGradient58"
       inkscape:collect="always"><stop
         style="stop-color:#ffffff;stop-opacity:1;"
         offset="0"
         id="stop58" /><stop
         style="stop-color:#ffcf15;stop-opacity:1;"
         offset="0.24317996"
         id="stop60" /><stop
         style="stop-color:#ffb61b;stop-opacity:1;"
         offset="0.34287187"
         id="stop64" /><stop
         style="stop-color:#ff7f2a;stop-opacity:1;"
         offset="0.55098718"
         id="stop59" /><stop
         style="stop-color:#f50000;stop-opacity:1;"
         offset="0.7864331"
         id="stop62" /></linearGradient><linearGradient
       id="swatch51"
       inkscape:swatch="solid"><stop
         style="stop-color:#bba038;stop-opacity:1;"
         offset="0"
         id="stop51" /></linearGradient><linearGradient
       id="linearGradient28"
       inkscape:collect="always"><stop
         style="stop-color:#262626;stop-opacity:1;"
         offset="0"
         id="stop28" /><stop
         style="stop-color:#0e0e0e;stop-opacity:1;"
         offset="1"
         id="stop29" /></linearGradient><linearGradient
       id="linearGradient26"
       inkscape:collect="always"><stop
         style="stop-color:#232323;stop-opacity:1;"
         offset="0"
         id="stop26" /><stop
         style="stop-color:#0f0f0f;stop-opacity:1;"
         offset="1"
         id="stop27" /></linearGradient><linearGradient
       id="linearGradient20"
       inkscape:collect="always"><stop
         style="stop-color:#464646;stop-opacity:1;"
         offset="0"
         id="stop20" /><stop
         style="stop-color:#262626;stop-opacity:1;"
         offset="0.80859798"
         id="stop22" /><stop
         style="stop-color:#242424;stop-opacity:1;"
         offset="1"
         id="stop21" /></linearGradient><linearGradient
       inkscape:collect="always"
       id="linearGradient177159"><stop
         style="stop-color:#343434;stop-opacity:1;"
         offset="0.00088304"
         id="stop177157" /><stop
         style="stop-color:#8c8c8c;stop-opacity:1;"
         offset="0.47208846"
         id="stop61" /><stop
         style="stop-color:#939393;stop-opacity:1;"
         offset="1"
         id="stop177155" /></linearGradient><linearGradient
       inkscape:collect="always"
       xlink:href="#linearGradient1662"
       id="linearGradient15"
       gradientUnits="userSpaceOnUse"
       gradientTransform="matrix(0.8961601,-0.24012538,0.24012538,0.8961601,-22.042942,108.41689)"
       x1="122.52553"
       y1="16.611544"
       x2="105.61341"
       y2="27.101183" /><linearGradient
       inkscape:collect="always"
       id="linearGradient1662"><stop
         style="stop-color:#595959;stop-opacity:1;"
         offset="0"
         id="stop1658" /><stop
         style="stop-color:#404040;stop-opacity:1;"
         offset="1"
         id="stop1660" /></linearGradient><linearGradient
       inkscape:collect="always"
       id="linearGradient13485"><stop
         style="stop-color:#d7bb6c;stop-opacity:1;"
         offset="0"
         id="stop13481" /><stop
         style="stop-color:#ffe086;stop-opacity:1;"
         offset="1"
         id="stop13483" /></linearGradient><linearGradient
       inkscape:collect="always"
       xlink:href="#linearGradient13485"
       id="linearGradient23"
       gradientUnits="userSpaceOnUse"
       gradientTransform="matrix(-0.6692319,-0.04295863,-0.04793922,0.74682206,160.28059,-52.552298)"
       x1="96.160164"
       y1="64.840111"
       x2="100.88902"
       y2="64.840111" /><linearGradient
       inkscape:collect="always"
       xlink:href="#linearGradient1662"
       id="linearGradient1"
       gradientUnits="userSpaceOnUse"
       gradientTransform="matrix(0.8961601,-0.24012538,0.24012538,0.8961601,-22.042942,108.41689)"
       x1="122.52553"
       y1="16.611544"
       x2="105.61341"
       y2="27.101183" /><linearGradient
       inkscape:collect="always"
       xlink:href="#linearGradient1662"
       id="linearGradient2"
       gradientUnits="userSpaceOnUse"
       gradientTransform="matrix(0.89616009,-0.24012538,0.24012538,0.89616012,-22.042942,108.41689)"
       x1="122.52553"
       y1="16.611544"
       x2="105.61341"
       y2="27.101183" /><linearGradient
       inkscape:collect="always"
       xlink:href="#linearGradient20"
       id="linearGradient21"
       x1="79.080254"
       y1="106.37653"
       x2="95.246506"
       y2="122.10094"
       gradientUnits="userSpaceOnUse"
       gradientTransform="translate(-4.8935546e-6)" /><linearGradient
       inkscape:collect="always"
       xlink:href="#linearGradient26"
       id="linearGradient27"
       x1="75.170776"
       y1="91.328491"
       x2="48.312881"
       y2="86.615036"
       gradientUnits="userSpaceOnUse"
       gradientTransform="translate(-4.91878e-6)" /><linearGradient
       inkscape:collect="always"
       xlink:href="#linearGradient28"
       id="linearGradient29"
       x1="91.748405"
       y1="93.882004"
       x2="128.43849"
       y2="74.752747"
       gradientUnits="userSpaceOnUse"
       gradientTransform="translate(-5.6379461e-6)" /><radialGradient
       inkscape:collect="always"
       xlink:href="#linearGradient58"
       id="radialGradient59"
       cx="61.546856"
       cy="103.0317"
       fx="61.546856"
       fy="103.0317"
       r="17.719597"
       gradientTransform="matrix(0.36009664,0.22056889,-0.2405776,0.39340122,78.043016,16.605449)"
       gradientUnits="userSpaceOnUse" /><radialGradient
       inkscape:collect="always"
       xlink:href="#linearGradient177159"
       id="radialGradient61"
       cx="85.516808"
       cy="79.20536"
       fx="85.516808"
       fy="79.20536"
       r="4.9409614"
       gradientTransform="matrix(1,0,0,0.39840909,-4.8935546e-6,47.649231)"
       gradientUnits="userSpaceOnUse" /></defs><g
     inkscape:label="Layer 1"
     inkscape:groupmode="layer"
     id="layer1"
     transform="translate(-23.927092,-43.127085)"><g
       id="g64"
       inkscape:export-filename="bombcell_logo_crop.png"
       inkscape:export-xdpi="500"
       inkscape:export-ydpi="500"><g
         id="g65"
         inkscape:export-filename="bombcell_logo_crop.png"
         inkscape:export-xdpi="500"
         inkscape:export-ydpi="500"><path
           style="font-variation-settings:normal;fill:url(#linearGradient27);fill-opacity:1;stroke:#000000;stroke-width:0.5;stroke-linecap:butt;stroke-linejoin:miter;stroke-miterlimit:4;stroke-dasharray:none;stroke-dashoffset:0;stroke-opacity:1;stop-color:#000000"
           d="m 76.945095,90.175787 c -3.680858,0.0264 -9.225226,-0.467447 -12.37318,-3.357712 -1.407158,-1.291971 -1.29734,-5.409626 -1.966666,-5.382906 -0.362246,0.0145 0.603413,2.145464 -0.0577,4.074945 -0.700263,1.421981 -2.548287,0.608247 -6.615922,-0.30503 -0.265307,-0.0596 -0.656362,0.001 -0.190689,0.33405 0.465674,0.332947 2.56359,0.746364 1.717875,1.824838 -0.28297,0.20725 -1.145983,0.738557 -3.312328,0.530817 -0.329555,-0.104097 -1.293958,-0.0669 -0.06684,0.483097 5.029084,0.1374 4.722714,-0.316657 5.85178,-0.457247 2.638521,-0.328527 11.640754,6.862861 12.568236,9.670136"
           id="path175780-9"
           sodipodi:nodetypes="cascszcccsc"
           inkscape:export-filename="bombcell_logo_crop.png"
           inkscape:export-xdpi="500"
           inkscape:export-ydpi="500" /><path
           style="font-variation-settings:normal;fill:url(#linearGradient29);stroke:#000000;stroke-width:0.5;stroke-linecap:butt;stroke-linejoin:miter;stroke-miterlimit:4;stroke-dasharray:none;stroke-dashoffset:0;stroke-opacity:1;stop-color:#000000"
           d="m 92.416111,89.76355 c 0,0 3.449283,0.398012 4.928326,0.237697 5.181373,-0.561615 9.525983,-4.632192 14.666883,-5.629066 0.56157,-0.108895 1.63182,-0.305877 1.71586,-0.0285 0.0841,0.27735 -1.02118,0.741249 -1.60348,0.970484 -1.23133,0.484737 -10.76289,5.513053 -12.46528,7.97434 -1.154985,1.669858 -3.158027,4.942997 -3.158027,4.942997"
           id="path175782-1"
           sodipodi:nodetypes="csazssc" /><path
           style="fill:url(#radialGradient61);fill-opacity:1;stroke:#000000;stroke-width:0.5;stroke-linecap:butt;stroke-linejoin:miter;stroke-dasharray:none;stroke-opacity:1"
           d="m 80.831161,83.263286 c 2.558859,-1.904316 6.663611,-2.177744 9.336131,-0.036 -0.16183,0.506107 -0.2881,1.433271 -1.2279,1.659701 -2.09198,0.11705 -5.173539,0.692867 -6.964984,-0.312977 -0.607006,-0.35339 -1.217456,-0.601937 -1.143247,-1.310694 z"
           id="path171607-3"
           sodipodi:nodetypes="cccczc" /><path
           style="font-variation-settings:normal;fill:url(#linearGradient1);fill-opacity:1;stroke:#000000;stroke-width:0.5;stroke-linecap:butt;stroke-linejoin:miter;stroke-miterlimit:4;stroke-dasharray:none;stroke-dashoffset:0;stroke-opacity:1;stop-color:#000000"
           d="m 80.801473,87.704612 c -5.870425,2.313565 -7.81856,6.026714 -9.665472,12.872438 1.491558,5.97511 6.88829,10.83671 12.772433,11.43255 7.765958,-1.00666 11.019478,-4.46716 12.735218,-10.63111 0.55383,-6.680657 -1.82898,-10.794966 -6.60759,-13.439671 -0.0364,-1.566041 -0.0469,-2.335495 0.0619,-4.443843 -2.34425,1.912538 -6.47177,1.881938 -9.243544,-0.0462 -0.06784,2.595075 -0.08083,2.586805 -0.05303,4.255796 z"
           id="path175766-7"
           sodipodi:nodetypes="ccccccccc" /><path
           style="font-variation-settings:normal;fill:url(#linearGradient21);stroke:#000000;stroke-width:0.5;stroke-linecap:round;stroke-linejoin:miter;stroke-miterlimit:4;stroke-dasharray:none;stroke-dashoffset:0;stroke-opacity:1;stop-color:#000000"
           d="m 78.607576,110.25731 c 1.924064,1.05345 3.940164,4.73685 4.393329,6.03693 0.192191,4.76502 -3.193067,6.83 -2.939191,11.72924 0.01277,0.24634 0.674268,0.14717 0.634604,-0.17105 0.0028,-1.21974 1.086848,-2.39496 1.724032,-2.57629 0.876918,-0.24954 1.766405,1.53971 2.011326,2.00009 0.275423,1.08377 -0.261597,6.70252 0.434116,8.50871 0.361039,0.93732 0.954677,0.65047 0.87477,-0.2606 -0.155222,-1.76976 0.518727,-5.19311 0.383716,-7.78912 -0.182842,-3.51571 -2.068258,-7.49752 -1.611098,-10.43777 0.45716,-2.94024 7.530792,-7.55024 7.530792,-7.55024"
           id="path175772-9"
           sodipodi:nodetypes="ccssscssazc" /><path
           style="font-variation-settings:normal;fill:url(#linearGradient2);fill-opacity:1;stroke:#000000;stroke-width:0.5;stroke-linecap:round;stroke-linejoin:round;stroke-miterlimit:4;stroke-dasharray:none;stroke-dashoffset:0;stroke-opacity:1;stop-color:#000000"
           d="m 71.265428,100.09614 c -0.457946,1.5066 -0.372194,2.2339 -0.896389,3.34155 -3.06332,2.83944 -12.957445,10.4372 -15.999843,14.03153 -1.167734,1.37958 -0.248001,1.74778 0.290945,1.06529 3.911477,-4.95327 14.579477,-9.6536 20.924292,-10.761"
           id="path175774-8"
           sodipodi:nodetypes="ccssc" /><path
           style="font-variation-settings:normal;fill:url(#linearGradient15);fill-opacity:1;stroke:#000000;stroke-width:0.5;stroke-linecap:round;stroke-linejoin:miter;stroke-miterlimit:4;stroke-dasharray:none;stroke-dashoffset:0;stroke-opacity:1;stop-color:#000000"
           d="m 83.980287,110.39325 c 5.26506,-0.32542 12.028198,-2.88049 17.137293,-0.32304 3.81594,1.91014 5.89216,10.42725 7.47733,10.3913 1.59236,-0.0372 -2.77681,-7.74084 -2.13056,-8.327 1.06299,-0.96415 8.42212,1.07473 11.96145,1.67422 9.71719,1.64582 -6.5188,-2.81463 -9.50218,-3.88844 -3.28569,-1.18262 -10.524253,-5.05726 -12.323611,-8.6972"
           id="path175770-6"
           sodipodi:nodetypes="cassssc" /><path
           style="fill:#d4aa00;stroke:#000000;stroke-width:0.5;stroke-linecap:butt;stroke-linejoin:miter;stroke-dasharray:none;stroke-opacity:1"
           d="m 85.612288,77.941638 c -1.319301,-1.635591 -3.859445,-1.181534 -5.773539,-2.531338 -1.335071,-0.941481 -1.434873,-3.172442 -2.055814,-4.414078 -0.17852,-0.356969 -1.150279,0.138246 -1.160723,0.529123 -0.04863,1.819776 0.640905,3.742835 1.877019,5.042203 1.431404,1.504651 4.232206,1.01634 5.72316,2.462005 0.45861,0.444679 0.161822,2.437794 0.367964,3.978724 0.125348,0.936986 2.040799,0.620866 2.004818,-0.216161 -0.06505,-1.513212 0.05284,-3.566446 -0.982885,-4.850478 z"
           id="path60-5"
           sodipodi:nodetypes="asssasssa" /><path
           style="fill:url(#radialGradient59);fill-rule:evenodd;stroke:#000000;stroke-width:0.5;stroke-linecap:square;stroke-linejoin:bevel;stroke-dasharray:none;stroke-opacity:1"
           d="m 72.759566,72.369051 -5.23419,0.342631 4.31616,-1.808061 -3.60559,-0.51914 3.76651,-0.462599 -3.87931,-2.312239 4.43535,0.765181 -2.25978,-2.396983 3.05635,1.541061 -1.42594,-3.881756 2.904096,3.06499 0.900423,-3.35022 1.026908,3.280911 3.49342,-3.415905 -1.257824,4.023609 2.714947,-1.377202 -2.221392,2.770022 4.730386,-0.299869 -4.415149,2.0273 3.328025,1.013565 -4.204722,0.107725 3.755432,3.101343 -4.328912,-1.658405 0.906124,2.848293 -1.924085,-2.281176 0.728496,4.317112 -2.523155,-3.77805 -1.441936,2.698372 0.449146,-3.196338 -3.191338,3.018988 1.63966,-3.072095 -2.51236,1.269674 z"
           id="path41"
           sodipodi:nodetypes="ccccccccccccccccccccccccccccccccc" /><path
           style="font-size:6.35px;line-height:1.25;font-family:Dosis;-inkscape-font-specification:'Dosis, @wght=400';font-variation-settings:'wght' 400;letter-spacing:0px;word-spacing:0px;stroke-width:0.264583"
           d="m 98.001496,100.64465 q -0.05702,-0.0682 -0.0555,-0.13569 0.0064,-0.0716 0.0551,-0.11228 l 3.312724,-2.769655 q 0.0633,-0.0529 0.12922,-0.0335 0.0748,0.0202 0.11963,0.0738 l 0.66798,0.798944 q 0.22809,0.27282 0.35212,0.549857 0.1281,0.28192 0.0578,0.564157 -0.0662,0.28711 -0.40723,0.572217 -0.30691,0.2566 -0.61414,0.31482 -0.29829,0.059 -0.53588,-0.0569 0.0678,0.19991 0.0592,0.39749 -0.009,0.19758 -0.11644,0.39532 -0.10781,0.19774 -0.36114,0.40954 l -0.0877,0.0733 q -0.37024,0.30955 -0.695366,0.36618 -0.325123,0.0566 -0.605842,-0.0811 -0.280719,-0.13777 -0.504735,-0.40571 z m 0.443799,-0.0731 0.586515,0.70153 q 0.264747,0.31666 0.585956,0.35435 0.330155,0.0385 0.705274,-0.27513 l 0.0828,-0.0692 q 0.37998,-0.3177 0.37623,-0.62909 0.005,-0.31059 -0.25955,-0.62724 l -0.586519,-0.701524 z m 1.773285,-1.482574 0.52949,0.633307 q 0.28511,0.341017 0.5608,0.383667 0.27569,0.0426 0.62157,-0.246537 0.22897,-0.19143 0.27745,-0.38095 0.0485,-0.189517 -0.0339,-0.377197 -0.0776,-0.191747 -0.24862,-0.396357 l -0.5132,-0.613827 z m 0.64672,4.666884 q -0.24166,-0.21559 -0.33551,-0.52056 -0.0896,-0.30971 -0.0358,-0.62761 0.0628,-0.3184 0.27416,-0.55532 l 0.45654,-0.51176 q 0.21559,-0.24166 0.51159,-0.335 0.30497,-0.0939 0.61864,-0.0353 0.3184,0.0628 0.5648,0.28261 0.24166,0.2156 0.33551,0.52057 0.10281,0.30446 0.0485,0.61338 -0.0543,0.30893 -0.27839,0.56007 l -0.45654,0.51176 q -0.20713,0.23218 -0.51633,0.33077 -0.3092,0.0986 -0.63183,0.0405 -0.31366,-0.0586 -0.55532,-0.27416 z m 0.25363,-0.28431 q 0.16585,0.14795 0.37462,0.18102 0.21299,0.0283 0.42036,-0.042 0.20737,-0.0703 0.34687,-0.22666 l 0.45654,-0.51176 q 0.1395,-0.15637 0.18153,-0.36565 0.0468,-0.20505 -0.0145,-0.41293 -0.0524,-0.2084 -0.21821,-0.35635 -0.16584,-0.14795 -0.37884,-0.17629 -0.20876,-0.0331 -0.41191,0.0325 -0.20314,0.0655 -0.34264,0.22192 l -0.45654,0.51176 q -0.1395,0.15637 -0.18576,0.37039 -0.0463,0.21401 0.006,0.42241 0.0613,0.20788 0.22243,0.35161 z m 1.29582,1.72082 q -0.0725,-0.0396 -0.10383,-0.11458 -0.0258,-0.072 0.005,-0.12771 l 1.28441,-2.35183 q 0.0365,-0.0669 0.10494,-0.0729 0.077,-0.009 0.14949,0.031 0.0725,0.0396 0.1013,0.10597 0.0319,0.0608 -0.005,0.12771 l -0.13696,0.25079 q 0.18301,-0.10988 0.43692,-0.13762 0.26253,-0.0303 0.53561,0.11887 0.27865,0.15218 0.39963,0.42084 0.12098,0.26867 0.0874,0.56867 0.30012,-0.20509 0.60166,-0.21406 0.31016,-0.0115 0.5498,0.11938 0.23964,0.13088 0.38446,0.36914 0.15039,0.24131 0.15631,0.54843 0.009,0.30154 -0.1767,0.6415 l -0.80656,1.47685 q -0.0304,0.0557 -0.11052,0.0699 -0.0745,0.0172 -0.15253,-0.0254 -0.0725,-0.0396 -0.10383,-0.11459 -0.0258,-0.072 0.005,-0.12771 l 0.80656,-1.47685 q 0.13088,-0.23964 0.12136,-0.44743 -0.01,-0.20779 -0.11738,-0.36799 -0.0992,-0.16273 -0.24972,-0.2449 -0.16162,-0.0883 -0.35774,-0.0868 -0.19056,0.004 -0.37609,0.10572 -0.17692,0.0987 -0.29258,0.3105 l -0.82483,1.5103 q -0.0396,0.0725 -0.11913,0.0724 -0.074,0.003 -0.14087,-0.0335 -0.0613,-0.0335 -0.10434,-0.10039 -0.0375,-0.0639 0.002,-0.13633 l 0.82178,-1.50472 q 0.10957,-0.20063 0.10562,-0.40537 -0.004,-0.20475 -0.10015,-0.37305 -0.0906,-0.16526 -0.26339,-0.25961 -0.16162,-0.0883 -0.35774,-0.0868 -0.19613,0.001 -0.38471,0.10825 -0.17996,0.1043 -0.30475,0.33279 l -0.80656,1.47687 q -0.0304,0.0557 -0.11052,0.0699 -0.0745,0.0172 -0.15253,-0.0254 z m 5.49916,2.42966 q -0.28268,-0.0957 -0.45837,-0.30941 -0.1757,-0.21369 -0.20879,-0.43273 l -0.0896,0.26464 q -0.0204,0.0602 -0.0908,0.0899 -0.0704,0.0298 -0.14861,0.003 -0.0782,-0.0265 -0.12204,-0.095 -0.0378,-0.0664 -0.0175,-0.12659 l 1.45011,-4.28234 q 0.0244,-0.0722 0.0908,-0.0899 0.0744,-0.0217 0.15259,0.005 0.0842,0.0285 0.12407,0.0889 0.0479,0.0564 0.0235,0.12862 l -0.68228,2.01488 q 0.16131,-0.1398 0.40663,-0.21092 0.25337,-0.0751 0.54808,0.0247 0.29472,0.0998 0.48234,0.33764 0.19568,0.23387 0.25245,0.54137 0.0648,0.30353 -0.0411,0.61628 l -0.21996,0.64957 q -0.0998,0.29472 -0.33977,0.50844 -0.23396,0.21576 -0.52953,0.29668 -0.29354,0.0749 -0.58224,-0.0229 z m 0.05,-0.38531 q 0.20449,0.0693 0.40956,0.018 0.2071,-0.0572 0.37045,-0.20306 0.16335,-0.14581 0.23056,-0.34429 l 0.21996,-0.64957 q 0.0672,-0.19848 0.024,-0.40752 -0.0432,-0.20905 -0.17493,-0.37433 -0.12971,-0.17131 -0.34021,-0.24259 -0.18044,-0.0611 -0.38143,-0.0219 -0.19896,0.0332 -0.36425,0.16493 -0.16529,0.13175 -0.24879,0.37835 l -0.2831,0.83601 q -0.0306,0.0902 0.0168,0.26716 0.0554,0.17295 0.18511,0.34426 0.13175,0.16529 0.33624,0.23453 z m 2.73681,1.29064 q -0.39943,-0.12689 -0.6116,-0.36085 -0.21217,-0.23397 -0.2566,-0.53458 -0.0444,-0.3006 0.0594,-0.62741 l 0.20378,-0.64151 q 0.10382,-0.32681 0.30752,-0.5486 0.20976,-0.21986 0.51806,-0.28849 0.31435,-0.0667 0.71378,0.0602 0.25418,0.0807 0.42065,0.20691 0.17444,0.12204 0.24848,0.2455 0.0801,0.12539 0.0532,0.21012 -0.0135,0.0424 -0.053,0.0831 -0.0316,0.0366 -0.0836,0.0534 -0.0459,0.0187 -0.0943,0.003 -0.0545,-0.0173 -0.10979,-0.0948 -0.0473,-0.0817 -0.15108,-0.17458 -0.10374,-0.0929 -0.32766,-0.16405 -0.39338,-0.12496 -0.66644,0.0215 -0.26508,0.14233 -0.38235,0.5115 l -0.20378,0.64151 q -0.11727,0.36917 0.0152,0.64443 0.1404,0.27113 0.53983,0.39802 0.22998,0.0731 0.37437,0.059 0.14632,-0.0201 0.23019,-0.0535 0.0919,-0.0375 0.15237,-0.0182 0.0545,0.0173 0.0812,0.0591 0.0328,0.0437 0.0375,0.0918 0.0107,0.05 -0.005,0.0985 -0.025,0.0787 -0.16469,0.1409 -0.13777,0.0562 -0.35864,0.0593 -0.21481,0.005 -0.48715,-0.0815 z m 2.59707,0.80677 q -0.38249,-0.11721 -0.63534,-0.35409 -0.24677,-0.23502 -0.33862,-0.54211 -0.0839,-0.3113 0.0221,-0.65737 l 0.20652,-0.67391 q 0.093,-0.30357 0.32902,-0.51019 0.23786,-0.21269 0.54544,-0.28447 0.31365,-0.0699 0.62936,0.0268 0.30356,0.093 0.51391,0.31688 0.21827,0.21964 0.29984,0.51694 0.0816,0.2973 -0.0189,0.62515 -0.0707,0.23071 -0.18126,0.30973 -0.11056,0.079 -0.23943,0.0661 -0.12093,-0.0171 -0.2545,-0.0581 l -1.37212,-0.42049 -0.0688,0.22464 q -0.11163,0.36428 0.0843,0.65678 0.19594,0.2925 0.59665,0.4153 0.24285,0.0744 0.39503,0.0546 0.15217,-0.0198 0.24363,-0.0582 0.0975,-0.0365 0.16432,-0.0161 0.0486,0.0149 0.0738,0.0625 0.0332,0.0434 0.0384,0.0915 0.0113,0.05 10e-5,0.0864 -0.0205,0.0668 -0.15952,0.13044 -0.13905,0.0636 -0.3678,0.0733 -0.22689,0.004 -0.50617,-0.0821 z m -0.40463,-1.93048 1.21426,0.37211 q 0.18214,0.0558 0.25402,0.038 0.0737,-0.0239 0.1128,-0.15139 0.0595,-0.19428 0.0145,-0.39405 -0.0432,-0.20583 -0.1797,-0.36721 -0.13464,-0.16745 -0.35928,-0.23629 -0.20643,-0.0633 -0.41413,-0.014 -0.20162,0.0511 -0.35507,0.18341 -0.15345,0.1323 -0.2167,0.33872 z m 2.25462,2.44409 q -0.0791,-0.0237 -0.12534,-0.0906 -0.0402,-0.0651 -0.022,-0.12589 l 1.29677,-4.33124 q 0.0219,-0.073 0.0875,-0.0931 0.0736,-0.0244 0.15266,-7e-4 0.0852,0.0255 0.12716,0.0845 0.0499,0.0547 0.028,0.12771 l -1.29677,4.33124 q -0.0182,0.0608 -0.0936,0.0913 -0.0693,0.0323 -0.15448,0.007 z m 1.64641,0.48934 q -0.0792,-0.0234 -0.12571,-0.09 -0.0404,-0.0649 -0.0225,-0.1258 l 1.27913,-4.33649 q 0.0216,-0.0731 0.0871,-0.0935 0.0735,-0.0247 0.15266,-10e-4 0.0853,0.0252 0.12751,0.084 0.0501,0.0545 0.0286,0.1276 l -1.27913,4.33648 q -0.018,0.0609 -0.0932,0.0917 -0.0692,0.0326 -0.15446,0.007 z"
           id="text1"
           aria-label="Bombcell" /><path
           style="fill:none;stroke:none;stroke-width:0.264583px;stroke-linecap:butt;stroke-linejoin:miter;stroke-opacity:1"
           d="m 97.628684,100.08184 c 1.880037,2.7319 4.639266,4.92829 6.391856,5.98579 1.75259,1.0575 13.11397,4.36928 13.11397,4.36928"
           id="path1"
           sodipodi:nodetypes="czc" /></g></g></g></svg>
