<?xml version="1.0" encoding="UTF-8" standalone="no"?>
<!-- Created with Inkscape (http://www.inkscape.org/) -->

<svg
   width="125.77699mm"
   height="102.73046mm"
   viewBox="0 0 125.77699 102.73046"
   version="1.1"
   id="svg1"
   inkscape:version="1.3.2 (1:1.3.2+202311252150+091e20ef0f)"
   sodipodi:docname="bombcell_logo_crop.svg"
   xml:space="preserve"
   xmlns:inkscape="http://www.inkscape.org/namespaces/inkscape"
   xmlns:sodipodi="http://sodipodi.sourceforge.net/DTD/sodipodi-0.dtd"
   xmlns:xlink="http://www.w3.org/1999/xlink"
   xmlns="http://www.w3.org/2000/svg"
   xmlns:svg="http://www.w3.org/2000/svg"><sodipodi:namedview
     id="namedview1"
     pagecolor="#ffffff"
     bordercolor="#666666"
     borderopacity="1.0"
     inkscape:showpageshadow="2"
     inkscape:pageopacity="0.0"
     inkscape:pagecheckerboard="0"
     inkscape:deskcolor="#d1d1d1"
     inkscape:document-units="mm"
     inkscape:zoom="0.9146557"
     inkscape:cx="173.8359"
     inkscape:cy="166.18275"
     inkscape:window-width="1600"
     inkscape:window-height="788"
     inkscape:window-x="1080"
     inkscape:window-y="484"
     inkscape:window-maximized="1"
     inkscape:current-layer="g65"
     showgrid="false" /><defs
     id="defs1"><linearGradient
       id="linearGradient58"
       inkscape:collect="always"><stop
         style="stop-color:#ffffff;stop-opacity:1;"
         offset="0"
         id="stop58" /><stop
         style="stop-color:#ffcf15;stop-opacity:1;"
         offset="0.24317996"
         id="stop60" /><stop
         style="stop-color:#ffb61b;stop-opacity:1;"
         offset="0.34287187"
         id="stop64" /><stop
         style="stop-color:#ff7f2a;stop-opacity:1;"
         offset="0.55098718"
         id="stop59" /><stop
         style="stop-color:#f50000;stop-opacity:1;"
         offset="0.98651987"
         id="stop62" /></linearGradient><linearGradient
       id="swatch51"
       inkscape:swatch="solid"><stop
         style="stop-color:#bba038;stop-opacity:1;"
         offset="0"
         id="stop51" /></linearGradient><linearGradient
       id="linearGradient28"
       inkscape:collect="always"><stop
         style="stop-color:#262626;stop-opacity:1;"
         offset="0"
         id="stop28" /><stop
         style="stop-color:#0e0e0e;stop-opacity:1;"
         offset="1"
         id="stop29" /></linearGradient><linearGradient
       id="linearGradient26"
       inkscape:collect="always"><stop
         style="stop-color:#232323;stop-opacity:1;"
         offset="0"
         id="stop26" /><stop
         style="stop-color:#0f0f0f;stop-opacity:1;"
         offset="1"
         id="stop27" /></linearGradient><linearGradient
       id="linearGradient24"
       inkscape:collect="always"><stop
         style="stop-color:#252525;stop-opacity:1;"
         offset="0"
         id="stop24" /><stop
         style="stop-color:#161616;stop-opacity:1;"
         offset="1"
         id="stop25" /></linearGradient><linearGradient
       id="linearGradient20"
       inkscape:collect="always"><stop
         style="stop-color:#404040;stop-opacity:1;"
         offset="0"
         id="stop20" /><stop
         style="stop-color:#262626;stop-opacity:1;"
         offset="0.35186347"
         id="stop22" /><stop
         style="stop-color:#242424;stop-opacity:1;"
         offset="1"
         id="stop21" /></linearGradient><linearGradient
       inkscape:collect="always"
       id="linearGradient177159"><stop
         style="stop-color:#343434;stop-opacity:1;"
         offset="0.00088304"
         id="stop177157" /><stop
         style="stop-color:#8c8c8c;stop-opacity:1;"
         offset="0.47208846"
         id="stop61" /><stop
         style="stop-color:#939393;stop-opacity:1;"
         offset="1"
         id="stop177155" /></linearGradient><linearGradient
       inkscape:collect="always"
       xlink:href="#linearGradient1662"
       id="linearGradient15"
       gradientUnits="userSpaceOnUse"
       gradientTransform="matrix(0.8961601,-0.24012538,0.24012538,0.8961601,-22.042942,108.41689)"
       x1="78.343124"
       y1="102.53812"
       x2="84.629745"
       y2="77.502861" /><linearGradient
       inkscape:collect="always"
       id="linearGradient1662"><stop
         style="stop-color:#595959;stop-opacity:1;"
         offset="0"
         id="stop1658" /><stop
         style="stop-color:#404040;stop-opacity:1;"
         offset="1"
         id="stop1660" /></linearGradient><linearGradient
       inkscape:collect="always"
       id="linearGradient13485"><stop
         style="stop-color:#d7bb6c;stop-opacity:1;"
         offset="0"
         id="stop13481" /><stop
         style="stop-color:#ffe086;stop-opacity:1;"
         offset="1"
         id="stop13483" /></linearGradient><linearGradient
       inkscape:collect="always"
       xlink:href="#linearGradient13485"
       id="linearGradient23"
       gradientUnits="userSpaceOnUse"
       gradientTransform="matrix(-0.6692319,-0.04295863,-0.04793922,0.74682206,160.28059,-52.552298)"
       x1="96.160164"
       y1="64.840111"
       x2="100.88902"
       y2="64.840111" /><linearGradient
       inkscape:collect="always"
       xlink:href="#linearGradient1662"
       id="linearGradient1"
       gradientUnits="userSpaceOnUse"
       gradientTransform="matrix(0.8961601,-0.24012538,0.24012538,0.8961601,-22.042942,108.41689)"
       x1="78.343124"
       y1="102.53812"
       x2="84.629745"
       y2="77.502861" /><linearGradient
       inkscape:collect="always"
       xlink:href="#linearGradient1662"
       id="linearGradient2"
       gradientUnits="userSpaceOnUse"
       gradientTransform="matrix(0.89616011,-0.24012538,0.24012538,0.89616011,-22.042942,108.41689)"
       x1="78.343124"
       y1="102.53812"
       x2="84.629745"
       y2="77.502861" /><linearGradient
       inkscape:collect="always"
       xlink:href="#linearGradient20"
       id="linearGradient21"
       x1="85.522545"
       y1="105.55347"
       x2="82.131554"
       y2="139.86349"
       gradientUnits="userSpaceOnUse"
       gradientTransform="translate(-4.8935546e-6)" /><linearGradient
       inkscape:collect="always"
       xlink:href="#linearGradient24"
       id="linearGradient25"
       x1="74.83992"
       y1="96.534225"
       x2="37.821045"
       y2="96.751587"
       gradientUnits="userSpaceOnUse"
       gradientTransform="translate(-4.8935546e-6)" /><linearGradient
       inkscape:collect="always"
       xlink:href="#linearGradient26"
       id="linearGradient27"
       x1="74.724388"
       y1="88.366539"
       x2="46.051231"
       y2="66.07473"
       gradientUnits="userSpaceOnUse"
       gradientTransform="translate(-4.8935546e-6)" /><linearGradient
       inkscape:collect="always"
       xlink:href="#linearGradient28"
       id="linearGradient29"
       x1="91.748405"
       y1="93.882004"
       x2="127.30256"
       y2="71.488823"
       gradientUnits="userSpaceOnUse"
       gradientTransform="translate(-4.8935546e-6)" /><radialGradient
       inkscape:collect="always"
       xlink:href="#linearGradient58"
       id="radialGradient59"
       cx="96.172668"
       cy="63.411842"
       fx="96.172668"
       fy="63.411842"
       r="17.719597"
       gradientTransform="matrix(0.46712885,0.29713117,-0.31680207,0.49939456,73.178054,1.8317963)"
       gradientUnits="userSpaceOnUse" /><radialGradient
       inkscape:collect="always"
       xlink:href="#linearGradient177159"
       id="radialGradient61"
       cx="85.516808"
       cy="79.20536"
       fx="85.516808"
       fy="79.20536"
       r="4.9409614"
       gradientTransform="matrix(1,0,0,0.39840909,-4.8935546e-6,47.649231)"
       gradientUnits="userSpaceOnUse" /></defs><g
     inkscape:label="Layer 1"
     inkscape:groupmode="layer"
     id="layer1"
     transform="translate(-23.927092,-43.127085)"><path
       style="fill:none;stroke:#000000;stroke-width:0.264583px;stroke-linecap:butt;stroke-linejoin:miter;stroke-opacity:1"
       d="m 303.91954,-12.539852 c -0.80578,-1.579876 0.38162,-3.83418 1.67183,-5.051006 1.90437,-1.796064 5.32983,-0.701555 7.58697,-2.027378 2.51711,-1.478528 2.40007,-3.889592 3.39487,-4.938802 0.42307,-0.446206 1.23669,0.398765 1.14687,0.870154 -0.41818,2.194608 -1.65591,4.342397 -3.43923,5.628467 -2.03667,1.468779 -5.24619,0.310431 -7.33941,1.697445 -0.76075,0.504087 -1.18116,1.409231 -1.60783,2.215947 -0.30539,0.577408 -0.0777,1.554626 -0.6633,1.843911 -0.23545,0.116302 -0.63146,-0.0048 -0.75077,-0.238738 z"
       id="path60"
       sodipodi:nodetypes="aasssaaaaa" /><g
       id="g64"
       inkscape:export-filename="bombcell_logo_crop.png"
       inkscape:export-xdpi="500"
       inkscape:export-ydpi="500"><g
         id="g65"
         inkscape:export-filename="bombcell_logo_crop.png"
         inkscape:export-xdpi="500"
         inkscape:export-ydpi="500"><path
           style="font-variation-settings:normal;fill:url(#linearGradient27);fill-opacity:1;stroke:#000000;stroke-width:0.5;stroke-linecap:butt;stroke-linejoin:miter;stroke-miterlimit:4;stroke-dasharray:none;stroke-dashoffset:0;stroke-opacity:1;stop-color:#000000"
           d="m 78.069547,88.115051 c -3.41157,-2.807378 -13.203611,-10.294728 -12.875771,-13.17258 -0.107173,-5.19929 0.413345,-4.982843 -0.787459,-8.292087 -0.37943,-0.45721 -1.09126,-0.742294 -1.06853,0.409702 0.35533,3.906654 0.40588,4.280013 -0.38347,5.560524 -1.50174,1.860875 -3.69661,-0.560172 -9.3412,-3.233146 -0.36817,-0.174347 -1.19641,0.407396 -0.62685,1.049083 0.56956,0.641686 3.91702,1.816149 1.70332,3.62751 -1.9218,1.035101 -1.9701,0.75262 -3.67598,0.682248 -0.94544,-0.106691 -2.144627,0.09934 -6.442323,-1.369161 -0.44721,-0.260814 -1.87064,-0.521692 -0.25992,0.688168 2.462641,1.534329 2.902065,2.0215 7.988993,2.353035 5.186039,0.337994 5.406515,-1.678006 6.49539,-1.968802 0.544014,-0.07603 0.03505,0.02934 1.55527,0.863254 6.04016,4.686623 11.72573,13.015089 14.97007,18.221832"
           id="path175780-9"
           sodipodi:nodetypes="cccccszccccsccc"
           inkscape:export-filename="bombcell_logo_crop.svg"
           inkscape:export-xdpi="96"
           inkscape:export-ydpi="96" /><path
           style="font-variation-settings:normal;fill:url(#linearGradient25);fill-opacity:1;stroke:#000000;stroke-width:0.5;stroke-linecap:butt;stroke-linejoin:miter;stroke-miterlimit:4;stroke-dasharray:none;stroke-dashoffset:0;stroke-opacity:1;stop-color:#000000"
           d="m 74.672277,90.363173 c 0,0 -0.906446,1.474452 -9.6087,1.978148 -8.702254,0.5037 -4.806023,0.57634 -16.54085,0.95847 l -6.55205,-1.524573 c -0.54183,-0.0236 -0.61851,0.456903 -0.1514,0.813953 1.08298,0.82782 2.823498,1.02655 4.00847,1.50196 1.990761,0.79868 2.460152,1.4162 2.39942,2.05595 -0.06073,0.63974 -1.159772,3.464152 -9.931827,6.662269 -1.23754,0.4463 -1.2596,0.71973 0.0572,0.86981 2.76272,-0.81167 6.692489,-1.00319 9.086486,-2.60325 3.83296,-4.810439 4.660261,-4.676209 10.992861,-5.455599 2.93475,-0.38183 3.63975,-0.8057 6.13558,-0.46077 2.49583,0.34493 8.88161,0.89894 8.88161,0.89894"
           id="path175776-8"
           sodipodi:nodetypes="czccsszsszzzc" /><path
           style="font-variation-settings:normal;fill:url(#linearGradient29);stroke:#000000;stroke-width:0.5;stroke-linecap:butt;stroke-linejoin:miter;stroke-miterlimit:4;stroke-dasharray:none;stroke-dashoffset:0;stroke-opacity:1;stop-color:#000000"
           d="m 92.091333,86.516772 c 0,0 4.493153,-0.04162 6.184763,-1.296791 7.021784,-5.210141 17.333394,-5.956539 26.373134,-6.726642 0.95962,-0.08175 2.78458,-0.251557 2.88011,0.230208 0.0955,0.481766 -1.79708,1.272342 -2.84569,1.377923 -5.08344,0.511835 -10.54691,1.047788 -15.41139,2.973808 -3.37318,1.33556 -6.14974,3.851136 -9.20183,5.812456 -1.90606,1.224863 -5.689381,3.71902 -5.689381,3.71902"
           id="path175782-1"
           sodipodi:nodetypes="csazsaac" /><path
           style="fill:url(#radialGradient61);fill-opacity:1;stroke:#000000;stroke-width:0.5;stroke-linecap:butt;stroke-linejoin:miter;stroke-dasharray:none;stroke-opacity:1"
           d="m 80.831161,79.029954 c 2.558859,-1.90432 6.663611,-2.177748 9.336131,-0.03603 -0.16183,0.506103 -0.2881,1.433268 -1.2279,1.659699 -2.09198,0.117045 -5.173539,0.692868 -6.964984,-0.312976 -0.607006,-0.353389 -1.217456,-0.601942 -1.143247,-1.310693 z"
           id="path171607-3"
           sodipodi:nodetypes="cccczc" /><path
           style="fill:#d4aa00;stroke:#000000;stroke-width:0.5;stroke-linecap:butt;stroke-linejoin:miter;stroke-opacity:1;stroke-dasharray:none"
           d="m 84.670061,79.044662 c -0.512379,-1.655546 -0.199025,-4.964879 1.165022,-6.827329 1.905165,-2.601282 6.230516,-2.240624 8.599569,-4.427721 2.641914,-2.439002 1.869366,-5.310402 2.791694,-6.833872 0.39225,-0.6479 1.5928,0.156008 1.6082,0.746922 0.0717,2.751068 -0.85514,5.660473 -2.664384,7.675601 -2.066272,2.301411 -6.232329,1.747939 -8.388075,3.965748 -0.783468,0.806024 -1.149852,1.983053 -1.35441,3.088394 -0.159214,0.86032 0.105114,1.817453 0.124117,2.621848 0.0085,0.359858 -1.681119,0.638613 -1.881732,-0.0096 z"
           id="path60-5"
           sodipodi:nodetypes="sasssaaasss" /><path
           d="m 98.430949,95.38209 c -0.05996,-0.06563 -0.09066,-0.132194 -0.09211,-0.199683 0.0033,-0.07177 0.02833,-0.129067 0.07519,-0.171895 l 4.782071,-4.36845 c 0.0609,-0.05567 0.12474,-0.07526 0.19143,-0.05877 0.0756,0.01691 0.13702,0.05114 0.18414,0.102712 l 1.05357,1.153322 c 0.23983,0.262543 0.42778,0.529487 0.56384,0.800825 0.14034,0.276026 0.1816,0.556563 0.12377,0.841611 -0.0535,0.289736 -0.2444,0.584501 -0.5726,0.884297 -0.29536,0.269816 -0.59524,0.440545 -0.89962,0.512185 -0.29542,0.07205 -0.56435,0.0554 -0.80679,-0.04995 0.0765,0.196731 0.11478,0.393981 0.11484,0.591751 4e-5,0.19777 -0.0494,0.397794 -0.14848,0.600074 -0.099,0.20228 -0.27046,0.414768 -0.51425,0.637478 l -0.12658,0.115636 c -0.35631,0.3255 -0.69564,0.523653 -1.01796,0.594483 -0.32233,0.07083 -0.62674,0.04359 -0.91322,-0.08173 -0.2865,-0.125317 -0.54752,-0.316904 -0.783073,-0.574761 z m 0.660251,-0.138707 0.92508,1.012673 c 0.27838,0.304739 0.57885,0.468895 0.9014,0.492464 0.33153,0.02397 0.6778,-0.128924 1.03879,-0.458701 l 0.11955,-0.109211 c 0.36569,-0.334059 0.53983,-0.656548 0.52242,-0.96747 -0.008,-0.310516 -0.15187,-0.618144 -0.43023,-0.922884 l -0.92508,-1.012673 z m 2.55981,-2.338406 0.83514,0.914219 c 0.2998,0.328185 0.58835,0.507528 0.86564,0.538041 0.27729,0.03051 0.58237,-0.106269 0.91524,-0.410348 0.22036,-0.201291 0.35059,-0.397666 0.3907,-0.589126 0.0401,-0.191458 0.0149,-0.379129 -0.0757,-0.563012 -0.0859,-0.188165 -0.21876,-0.380704 -0.39864,-0.577611 l -0.80945,-0.886089 z m 1.37349,7.366943 c -0.26639,-0.18417 -0.46494,-0.42179 -0.59565,-0.712871 -0.12711,-0.296304 -0.18354,-0.605506 -0.16929,-0.927606 0.0231,-0.323712 0.12488,-0.616151 0.30545,-0.877316 L 103.15,96.907954 c 0.18417,-0.266391 0.41737,-0.464133 0.69962,-0.593236 0.29108,-0.130714 0.59586,-0.186336 0.91435,-0.166867 0.32371,0.02308 0.62138,0.128508 0.89299,0.316283 0.26639,0.184163 0.46494,0.421786 0.59565,0.712867 0.13955,0.289469 0.20139,0.590836 0.18553,0.904101 -0.0159,0.313266 -0.11949,0.608316 -0.31086,0.885151 l -0.58499,0.846173 c -0.17694,0.255944 -0.41276,0.451884 -0.70745,0.587824 -0.29469,0.13593 -0.6057,0.19497 -0.93302,0.17712 -0.31849,-0.0195 -0.61093,-0.12128 -0.87732,-0.30545 z m 0.32499,-0.470101 c 0.18282,0.126387 0.37985,0.193124 0.5911,0.200211 0.21487,0.002 0.42086,-0.04472 0.61799,-0.140161 0.19713,-0.09531 0.35528,-0.229149 0.47444,-0.40152 l 0.58499,-0.846174 c 0.11917,-0.172367 0.1867,-0.364985 0.20263,-0.577848 0.0211,-0.209253 -0.0115,-0.413249 -0.098,-0.611988 -0.0777,-0.200352 -0.20788,-0.363721 -0.39069,-0.490108 -0.18281,-0.126387 -0.38165,-0.190514 -0.59652,-0.192381 -0.21125,-0.0071 -0.41363,0.03441 -0.60715,0.124497 -0.19351,0.09009 -0.34985,0.221313 -0.46902,0.393684 l -0.58499,0.846174 c -0.11916,0.172371 -0.18852,0.367596 -0.20805,0.585683 -0.0195,0.218087 0.01,0.427306 0.0872,0.627658 0.0865,0.19874 0.21851,0.359498 0.3961,0.482273 z m 2.85136,2.209581 c -0.078,-0.0272 -0.13853,-0.0752 -0.18176,-0.1441 -0.0372,-0.0668 -0.0454,-0.13016 -0.0245,-0.19012 l 1.32382,-3.795293 c 0.0251,-0.07195 0.0709,-0.116499 0.13741,-0.133652 0.0746,-0.02105 0.15086,-0.01799 0.22881,0.0092 0.078,0.02719 0.13658,0.07118 0.1759,0.131969 0.0414,0.05479 0.0496,0.118166 0.0245,0.190118 l -0.14117,0.404712 c 0.16258,-0.138323 0.36685,-0.241929 0.61281,-0.310816 0.25405,-0.07279 0.52796,-0.05795 0.82175,0.04453 0.29979,0.104567 0.53132,0.279481 0.69461,0.524741 0.16328,0.24526 0.25287,0.518618 0.26878,0.820075 0.26255,-0.251407 0.54183,-0.406187 0.83785,-0.464339 0.3041,-0.06206 0.58506,-0.04812 0.84288,0.04181 0.25781,0.08993 0.47764,0.240581 0.65947,0.451958 0.18782,0.213468 0.30976,0.471207 0.36582,0.773217 0.0581,0.29602 0.0234,0.6269 -0.10413,0.99264 l -0.83131,2.3833 c -0.0209,0.0599 -0.0697,0.10344 -0.1464,0.13052 -0.0707,0.0291 -0.14801,0.0291 -0.23195,-2.1e-4 -0.0779,-0.0272 -0.13852,-0.0752 -0.18175,-0.1441 -0.0373,-0.0668 -0.0454,-0.13016 -0.0245,-0.19011 l 0.83131,-2.38331 c 0.0899,-0.25781 0.11319,-0.48844 0.0698,-0.69187 -0.0434,-0.20343 -0.13139,-0.37535 -0.26397,-0.515761 -0.12451,-0.144311 -0.26771,-0.244699 -0.4296,-0.301165 -0.17388,-0.06065 -0.35745,-0.07424 -0.5507,-0.04077 -0.18726,0.03556 -0.36413,0.118458 -0.53061,0.248695 -0.15839,0.126334 -0.27733,0.303421 -0.3568,0.531251 l -0.85013,2.43727 c -0.0272,0.0779 -0.08,0.1234 -0.15853,0.13637 -0.0725,0.0151 -0.14473,0.01 -0.21668,-0.0151 -0.0659,-0.023 -0.12561,-0.064 -0.17904,-0.12298 -0.0474,-0.0569 -0.0575,-0.12428 -0.0303,-0.20225 l 0.84699,-2.42827 c 0.0753,-0.215845 0.0943,-0.424439 0.0569,-0.625781 -0.0374,-0.201342 -0.1173,-0.377166 -0.23971,-0.527473 -0.11643,-0.148215 -0.26758,-0.254739 -0.45345,-0.319571 -0.17387,-0.06065 -0.35744,-0.07424 -0.55069,-0.04077 -0.19325,0.03347 -0.37417,0.118324 -0.54274,0.254553 -0.16049,0.132327 -0.2836,0.321403 -0.36935,0.567228 l -0.83131,2.383304 c -0.0209,0.0599 -0.0697,0.10344 -0.1464,0.13051 -0.0707,0.0291 -0.14801,0.0291 -0.23195,-2e-4 z m 8.67504,3.01081 c -0.25912,-0.14807 -0.53393,-0.19911 -0.7297,-0.39458 -0.19577,-0.19546 -0.32085,-0.40056 -0.37523,-0.61531 l -0.0949,0.40822 c -0.0144,0.0619 -0.0552,0.11106 -0.12232,0.14758 -0.0672,0.0365 -0.14096,0.0455 -0.22137,0.0268 -0.0804,-0.0187 -0.14578,-0.0599 -0.19612,-0.12383 -0.0441,-0.0624 -0.059,-0.12454 -0.0447,-0.18641 l 1.53582,-6.60561 c 0.0173,-0.07422 0.058,-0.123415 0.12233,-0.147583 0.0719,-0.02891 0.14807,-0.03402 0.22848,-0.01533 0.0866,0.02013 0.15268,0.05832 0.19828,0.114555 0.0532,0.05149 0.0712,0.114349 0.054,0.188566 l -0.72261,3.107982 c 0.14685,-0.15492 0.33886,-0.27978 0.57604,-0.37458 0.24481,-0.0995 0.51874,-0.1141 0.82181,-0.0436 0.30307,0.0705 0.55961,0.21486 0.76962,0.43319 0.21763,0.21359 0.36975,0.47062 0.45636,0.77109 0.0942,0.29572 0.10396,0.60439 0.0292,0.92601 l -0.23296,1.00197 c -0.0705,0.30307 -0.21464,0.5727 -0.43254,0.80889 -0.21171,0.23763 -0.46068,0.41118 -0.74691,0.52065 -0.28479,0.10329 -0.60787,0.20262 -0.87251,0.0514 z m 0.0181,-0.58254 c 0.21029,0.0489 0.41497,0.0378 0.61404,-0.0333 0.2005,-0.0773 0.37489,-0.19642 0.52318,-0.35753 0.14829,-0.1611 0.24615,-0.3437 0.29361,-0.54781 l 0.23296,-1.00198 c 0.0475,-0.20411 0.0395,-0.40807 -0.024,-0.61188 -0.0635,-0.20381 -0.16883,-0.38151 -0.3161,-0.53311 -0.14586,-0.15778 -0.32703,-0.26183 -0.54351,-0.31216 -0.18555,-0.0431 -0.37642,-0.0354 -0.57261,0.0233 -0.19475,0.0525 -0.36792,0.15244 -0.51952,0.29971 -0.15159,0.14729 -0.25687,0.34773 -0.31583,0.60132 l -0.29983,1.28958 c -0.0216,0.0928 -1.7e-4,0.22489 0.0643,0.39634 0.0721,0.1667 0.18103,0.32894 0.32689,0.48672 0.1473,0.15159 0.32609,0.25184 0.53638,0.30073 z m 4.26976,1.53015 c -0.40859,-0.0933 -0.72831,-0.24769 -0.95918,-0.46323 -0.23087,-0.21554 -0.38092,-0.47125 -0.45015,-0.76714 -0.0692,-0.29588 -0.0657,-0.61097 0.0106,-0.94527 l 0.22472,-0.98432 c 0.0763,-0.3343 0.20677,-0.62042 0.39136,-0.85835 0.19078,-0.23652 0.43694,-0.40178 0.73847,-0.49577 0.30773,-0.0926 0.66588,-0.0922 1.07447,10e-4 0.26001,0.0594 0.4782,0.14504 0.65456,0.25691 0.18397,0.10714 0.31798,0.21915 0.40202,0.33604 0.0902,0.1183 0.12546,0.22078 0.10567,0.30745 -0.01,0.0433 -0.0328,0.0869 -0.0689,0.13081 -0.0285,0.0391 -0.0679,0.0692 -0.11831,0.0902 -0.0442,0.0225 -0.0911,0.0281 -0.1406,0.0168 -0.0557,-0.0127 -0.11438,-0.0554 -0.17593,-0.1281 -0.0539,-0.0774 -0.13646,-0.15817 -0.24759,-0.24215 -0.11109,-0.084 -0.28117,-0.15213 -0.51022,-0.20442 -0.4024,-0.0919 -0.73357,-0.0535 -0.99352,0.11513 -0.25235,0.16384 -0.42164,0.43457 -0.50785,0.81221 l -0.22472,0.98433 c -0.0862,0.37762 -0.0519,0.69811 0.10292,0.96142 0.16243,0.25854 0.44793,0.43445 0.85652,0.52773 0.23525,0.0537 0.42423,0.0676 0.56696,0.0415 0.14414,-0.0322 0.25662,-0.0684 0.33744,-0.1086 0.0884,-0.0449 0.16358,-0.0603 0.22549,-0.0462 0.0557,0.0127 0.0986,0.0388 0.12869,0.0782 0.0363,0.0409 0.0587,0.0851 0.0674,0.13264 0.0149,0.049 0.0165,0.0983 0.005,0.14777 -0.0184,0.0805 -0.0946,0.15752 -0.22863,0.23113 -0.13263,0.0674 -0.30887,0.11186 -0.52872,0.13332 -0.21365,0.0229 -0.45976,0.002 -0.73834,-0.0611 z m 3.91493,1.03614 c -0.38316,-0.11501 -0.70184,-0.29022 -0.95605,-0.52563 -0.24812,-0.23359 -0.41899,-0.50367 -0.51261,-0.81022 -0.0857,-0.31081 -0.0766,-0.63956 0.0275,-0.98623 l 0.30395,-1.01264 c 0.0913,-0.30411 0.25431,-0.56014 0.48911,-0.76811 0.23663,-0.21406 0.50853,-0.35787 0.81569,-0.43142 0.31324,-0.0717 0.62799,-0.0601 0.94425,0.0348 0.3041,0.0913 0.56196,0.24823 0.77359,0.47087 0.21954,0.21838 0.37095,0.47598 0.45423,0.77281 0.0833,0.29682 0.0756,0.60944 -0.0229,0.93787 -0.0694,0.23111 -0.1591,0.3865 -0.2692,0.46616 -0.1101,0.0797 -0.22962,0.1134 -0.35856,0.10122 -0.12103,-0.0165 -0.24845,-0.0448 -0.38225,-0.0849 l -2.06178,-0.61885 -0.10132,0.33755 c -0.10953,0.36491 -0.0655,0.69305 0.13215,0.98442 0.19763,0.29137 0.49715,0.49729 0.89856,0.61777 0.24328,0.073 0.44095,0.0992 0.593,0.0785 0.15206,-0.0207 0.27371,-0.0505 0.36495,-0.0894 0.0973,-0.0371 0.17943,-0.0456 0.24633,-0.0255 0.0487,0.0146 0.0858,0.0456 0.11129,0.0931 0.0335,0.0432 0.0529,0.0888 0.0584,0.13686 0.0115,0.0499 0.0118,0.093 8.9e-4,0.12955 -0.0201,0.0669 -0.0994,0.13258 -0.23814,0.19703 -0.13869,0.0645 -0.32237,0.10215 -0.55106,0.11305 -0.22687,0.005 -0.48019,-0.0349 -0.75996,-0.11871 z m -0.62362,-2.89217 1.82458,0.54766 c 0.18246,0.0547 0.30957,0.073 0.38134,0.0548 0.0736,-0.0243 0.12957,-0.10035 0.1679,-0.22806 0.0584,-0.19462 0.0645,-0.39168 0.0183,-0.59119 -0.0444,-0.20558 -0.1353,-0.38867 -0.2727,-0.54926 -0.13561,-0.16667 -0.31594,-0.28377 -0.54097,-0.35132 -0.20679,-0.0621 -0.41388,-0.0679 -0.62129,-0.0174 -0.20133,0.0523 -0.37833,0.14499 -0.53102,0.27818 -0.15268,0.13318 -0.26006,0.30315 -0.32212,0.50995 z m 3.36503,3.72771 c -0.0781,-0.0266 -0.13907,-0.0742 -0.18279,-0.14279 -0.0377,-0.0665 -0.0463,-0.12984 -0.0258,-0.18993 l 2.18739,-6.41936 c 0.0246,-0.0721 0.0701,-0.11701 0.13644,-0.13464 0.0745,-0.0216 0.15074,-0.0189 0.22888,0.008 0.0841,0.0287 0.1461,0.0733 0.18586,0.13377 0.0478,0.0565 0.0594,0.12087 0.0349,0.19301 l -2.18739,6.41936 c -0.0205,0.0601 -0.069,0.10399 -0.14546,0.13156 -0.0705,0.0297 -0.14779,0.03 -0.23194,0.001 z m 1.87947,0.62553 c -0.0754,-0.0336 -0.13174,-0.0865 -0.16905,-0.15881 -0.0315,-0.0697 -0.0342,-0.13351 -0.008,-0.1915 l 2.23279,-6.1939 c 0.0311,-0.0696 0.0804,-0.11016 0.14811,-0.12168 0.0761,-0.0147 0.15185,-0.005 0.22724,0.0283 0.0812,0.0362 0.13884,0.0862 0.17293,0.15011 0.0425,0.0607 0.0482,0.12579 0.0172,0.19538 l -2.23279,6.1939 c -0.0259,0.058 -0.0781,0.0973 -0.15682,0.1178 -0.0729,0.0231 -0.14992,0.0166 -0.23111,-0.0196 z"
           id="text172474-3"
           style="font-size:9.525px;line-height:1.25;font-family:Dosis;-inkscape-font-specification:'Dosis, Normal';stroke-width:0.264583;stroke:#000000;stroke-opacity:1"
           aria-label="Bombcell"
           sodipodi:nodetypes="ccccccsccsccsssssssccscsscccccsssccsccscccsccscscsscscccssccscssssccccccccsccccssccscccccsccsscscccccccccccsscsccccssccssccccsccccscccsccssccsscscscssccccccsscscccccccccccscssccccscccccccccccsccscssscccsssscsccssccccccsccscssccccccccccccccccccscccccc"
           transform="translate(-0.137751,-0.29054)" /><path
           style="font-variation-settings:normal;fill:url(#linearGradient1);fill-opacity:1;stroke:#000000;stroke-width:0.5;stroke-linecap:butt;stroke-linejoin:miter;stroke-miterlimit:4;stroke-dasharray:none;stroke-dashoffset:0;stroke-opacity:1;stop-color:#000000"
           d="m 80.801473,83.471278 c -5.870425,2.313568 -7.745974,5.732185 -9.592886,12.577903 1.491558,5.975089 6.815704,11.131219 12.699847,11.727059 7.765958,-1.00666 11.019478,-4.46716 12.735218,-10.631089 0.55383,-6.680655 -1.82898,-10.794959 -6.60759,-13.439671 -0.0364,-1.566034 -0.0469,-2.335492 0.0619,-4.443843 -2.34425,1.912542 -6.47177,1.881937 -9.243544,-0.04616 -0.06784,2.595081 -0.08083,2.586809 -0.05303,4.255796 z"
           id="path175766-7"
           sodipodi:nodetypes="ccccccccc" /><path
           style="font-variation-settings:normal;fill:url(#linearGradient21);stroke:#000000;stroke-width:0.5;stroke-linecap:round;stroke-linejoin:miter;stroke-miterlimit:4;stroke-dasharray:none;stroke-dashoffset:0;stroke-opacity:1;stop-color:#000000"
           d="m 78.704054,105.97818 c 1.924064,1.65223 3.503081,4.27599 3.956246,6.31503 0.158484,6.16276 -3.511165,8.30289 -3.282831,16.9489 0.135485,2.60023 -0.30257,1.17549 0.684245,4.19025 0.120261,0.3674 0.674268,0.23082 0.634604,-0.26827 -0.12924,-1.62622 -0.07044,-2.58429 0.229947,-5.66036 0.10588,-1.08423 0.495654,-2.22712 1.494085,-2.61363 1.273638,-0.49304 1.766405,2.41488 2.011326,3.13694 0.600256,5.29417 -0.217651,9.79158 1.492449,15.70136 0.42078,1.45412 0.98258,1.01837 0.87477,-0.40872 -0.40596,-5.37379 0.783403,-9.79297 0.381007,-14.66705 -0.376796,-4.56401 -3.061451,-8.87802 -2.604291,-13.48951 0.45716,-4.61149 7.468361,-9.64899 7.468361,-9.64899"
           id="path175772-9"
           sodipodi:nodetypes="cccsssscssazc" /><path
           style="font-variation-settings:normal;fill:url(#linearGradient2);fill-opacity:1;stroke:#000000;stroke-width:0.5;stroke-linecap:round;stroke-linejoin:round;stroke-miterlimit:4;stroke-dasharray:none;stroke-dashoffset:0;stroke-opacity:1;stop-color:#000000"
           d="m 71.403283,95.983692 c -3.763187,3.713634 -2.783707,3.658123 -7.602325,6.505808 -1.436637,1.335 -1.666081,1.47004 -3.146412,2.6374 -0.140486,0.18574 -0.962688,1.13197 -1.637243,1.8086 l -5.084402,4.74446 c -2.372592,3.68058 -7.762278,8.45318 -8.51391,10.06284 -0.971453,2.0804 -0.177065,2.76505 0.614497,1.974 1.36774,-1.36686 7.885453,-8.98727 11.625179,-12.41816 7.31905,-6.71462 8.788182,-6.61271 18.284962,-7.63942"
           id="path175774-8"
           sodipodi:nodetypes="cccccsssc" /><path
           style="font-variation-settings:normal;fill:url(#linearGradient15);fill-opacity:1;stroke:#000000;stroke-width:0.5;stroke-linecap:round;stroke-linejoin:miter;stroke-miterlimit:4;stroke-dasharray:none;stroke-dashoffset:0;stroke-opacity:1;stop-color:#000000"
           d="m 81.598344,106.06858 c 0,0 9.096478,-1.11644 10.814158,-0.669 7.04815,1.06492 9.020318,1.89087 9.647038,5.49613 0.69775,8.36485 4.70847,11.55154 6.21242,12.04227 1.25913,0.41085 -1.33398,-4.69073 -1.56515,-5.35854 -0.52742,-1.52364 -0.58458,-1.12665 -0.8808,-4.67899 -0.18417,-2.20865 -0.0683,-4.21052 0.94254,-4.48301 1.01084,-0.27253 2.24028,-0.5625 7.56398,0.8916 5.32369,1.45411 9.31431,1.42952 13.14431,2.40684 1.85052,0.4722 2.68126,0.74081 1.45977,-0.72729 -0.69782,-0.83871 -7.72692,-3.08651 -7.72692,-3.08651 -9.99303,-2.52904 -19.51601,-2.42436 -24.598498,-12.705719"
           id="path175770-6"
           sodipodi:nodetypes="ccsssszzsscc" /><path
           style="fill:url(#radialGradient59);fill-rule:evenodd;stroke:#000000;stroke-width:0.5;stroke-linecap:butt;stroke-linejoin:miter;stroke-opacity:1;stroke-dasharray:none"
           d="m 94.185505,64.552038 -7.137448,0.455646 6.020202,-2.238016 -3.801006,-0.275541 3.996846,-0.918526 -4.721141,-2.812325 5.397851,0.930673 -2.270197,-2.468585 3.239625,1.427546 -1.735375,-4.721294 3.534298,3.727879 1.095821,-4.074797 1.249754,3.990499 4.251515,-4.154689 -1.53078,4.893826 3.30411,-1.675061 -2.70345,3.369117 5.75691,-0.364724 -4.40168,2.217258 2.59773,1.356885 -4.63626,0.255416 4.57038,3.772095 -5.26831,-2.017081 1.10276,3.464315 -2.341625,-2.774543 0.886585,5.250807 -3.070697,-4.595159 -1.754846,3.28197 0.546614,-3.887634 -3.883879,3.671927 1.995477,-3.73652 -3.057559,1.544276 z"
           id="path41" /></g></g></g></svg>
