<?xml version="1.0" encoding="UTF-8" standalone="no"?>
<!-- Created with Inkscape (http://www.inkscape.org/) -->

<svg
   width="125.77699mm"
   height="102.73046mm"
   viewBox="0 0 125.77699 102.73046"
   version="1.1"
   id="svg1"
   inkscape:version="1.3.2 (1:1.3.2+202311252150+091e20ef0f)"
   sodipodi:docname="bombcell_logo_crop_circle.svg"
   xml:space="preserve"
   xmlns:inkscape="http://www.inkscape.org/namespaces/inkscape"
   xmlns:sodipodi="http://sodipodi.sourceforge.net/DTD/sodipodi-0.dtd"
   xmlns:xlink="http://www.w3.org/1999/xlink"
   xmlns="http://www.w3.org/2000/svg"
   xmlns:svg="http://www.w3.org/2000/svg"><sodipodi:namedview
     id="namedview1"
     pagecolor="#ffffff"
     bordercolor="#666666"
     borderopacity="1.0"
     inkscape:showpageshadow="2"
     inkscape:pageopacity="0.0"
     inkscape:pagecheckerboard="0"
     inkscape:deskcolor="#d1d1d1"
     inkscape:document-units="mm"
     inkscape:zoom="1.2935185"
     inkscape:cx="187.8597"
     inkscape:cy="214.91768"
     inkscape:window-width="1600"
     inkscape:window-height="788"
     inkscape:window-x="1080"
     inkscape:window-y="484"
     inkscape:window-maximized="1"
     inkscape:current-layer="g65"
     showgrid="false" /><defs
     id="defs1"><linearGradient
       id="linearGradient58"
       inkscape:collect="always"><stop
         style="stop-color:#ffffff;stop-opacity:1;"
         offset="0"
         id="stop58" /><stop
         style="stop-color:#ffcf15;stop-opacity:1;"
         offset="0.24317996"
         id="stop60" /><stop
         style="stop-color:#ffb61b;stop-opacity:1;"
         offset="0.34287187"
         id="stop64" /><stop
         style="stop-color:#ff7f2a;stop-opacity:1;"
         offset="0.55098718"
         id="stop59" /><stop
         style="stop-color:#f50000;stop-opacity:1;"
         offset="0.7864331"
         id="stop62" /></linearGradient><linearGradient
       id="swatch51"
       inkscape:swatch="solid"><stop
         style="stop-color:#bba038;stop-opacity:1;"
         offset="0"
         id="stop51" /></linearGradient><linearGradient
       id="linearGradient28"
       inkscape:collect="always"><stop
         style="stop-color:#262626;stop-opacity:1;"
         offset="0"
         id="stop28" /><stop
         style="stop-color:#0e0e0e;stop-opacity:1;"
         offset="1"
         id="stop29" /></linearGradient><linearGradient
       id="linearGradient26"
       inkscape:collect="always"><stop
         style="stop-color:#232323;stop-opacity:1;"
         offset="0"
         id="stop26" /><stop
         style="stop-color:#0f0f0f;stop-opacity:1;"
         offset="1"
         id="stop27" /></linearGradient><linearGradient
       id="linearGradient24"
       inkscape:collect="always"><stop
         style="stop-color:#252525;stop-opacity:1;"
         offset="0"
         id="stop24" /><stop
         style="stop-color:#161616;stop-opacity:1;"
         offset="1"
         id="stop25" /></linearGradient><linearGradient
       id="linearGradient20"
       inkscape:collect="always"><stop
         style="stop-color:#404040;stop-opacity:1;"
         offset="0"
         id="stop20" /><stop
         style="stop-color:#262626;stop-opacity:1;"
         offset="0.32302195"
         id="stop22" /><stop
         style="stop-color:#242424;stop-opacity:1;"
         offset="1"
         id="stop21" /></linearGradient><linearGradient
       inkscape:collect="always"
       id="linearGradient177159"><stop
         style="stop-color:#343434;stop-opacity:1;"
         offset="0.00088304"
         id="stop177157" /><stop
         style="stop-color:#8c8c8c;stop-opacity:1;"
         offset="0.47208846"
         id="stop61" /><stop
         style="stop-color:#939393;stop-opacity:1;"
         offset="1"
         id="stop177155" /></linearGradient><linearGradient
       inkscape:collect="always"
       xlink:href="#linearGradient1662"
       id="linearGradient15"
       gradientUnits="userSpaceOnUse"
       gradientTransform="matrix(0.8961601,-0.24012538,0.24012538,0.8961601,-22.042942,108.41689)"
       x1="78.343124"
       y1="102.53812"
       x2="84.629745"
       y2="77.502861" /><linearGradient
       inkscape:collect="always"
       id="linearGradient1662"><stop
         style="stop-color:#595959;stop-opacity:1;"
         offset="0"
         id="stop1658" /><stop
         style="stop-color:#404040;stop-opacity:1;"
         offset="1"
         id="stop1660" /></linearGradient><linearGradient
       inkscape:collect="always"
       id="linearGradient13485"><stop
         style="stop-color:#d7bb6c;stop-opacity:1;"
         offset="0"
         id="stop13481" /><stop
         style="stop-color:#ffe086;stop-opacity:1;"
         offset="1"
         id="stop13483" /></linearGradient><linearGradient
       inkscape:collect="always"
       xlink:href="#linearGradient13485"
       id="linearGradient23"
       gradientUnits="userSpaceOnUse"
       gradientTransform="matrix(-0.6692319,-0.04295863,-0.04793922,0.74682206,160.28059,-52.552298)"
       x1="96.160164"
       y1="64.840111"
       x2="100.88902"
       y2="64.840111" /><linearGradient
       inkscape:collect="always"
       xlink:href="#linearGradient1662"
       id="linearGradient1"
       gradientUnits="userSpaceOnUse"
       gradientTransform="matrix(0.8961601,-0.24012538,0.24012538,0.8961601,-22.042942,108.41689)"
       x1="78.343124"
       y1="102.53812"
       x2="84.629745"
       y2="77.502861" /><linearGradient
       inkscape:collect="always"
       xlink:href="#linearGradient1662"
       id="linearGradient2"
       gradientUnits="userSpaceOnUse"
       gradientTransform="matrix(0.89616011,-0.24012538,0.24012538,0.89616011,-22.042942,108.41689)"
       x1="78.343124"
       y1="102.53812"
       x2="84.629745"
       y2="77.502861" /><linearGradient
       inkscape:collect="always"
       xlink:href="#linearGradient20"
       id="linearGradient21"
       x1="79.111267"
       y1="107.34343"
       x2="92.349335"
       y2="124.04468"
       gradientUnits="userSpaceOnUse"
       gradientTransform="translate(-4.8935546e-6)" /><linearGradient
       inkscape:collect="always"
       xlink:href="#linearGradient24"
       id="linearGradient25"
       x1="74.83992"
       y1="96.534225"
       x2="37.821045"
       y2="96.751587"
       gradientUnits="userSpaceOnUse"
       gradientTransform="translate(-4.8935546e-6)" /><linearGradient
       inkscape:collect="always"
       xlink:href="#linearGradient26"
       id="linearGradient27"
       x1="74.724388"
       y1="88.366539"
       x2="46.051231"
       y2="66.07473"
       gradientUnits="userSpaceOnUse"
       gradientTransform="translate(-4.8935546e-6)" /><linearGradient
       inkscape:collect="always"
       xlink:href="#linearGradient28"
       id="linearGradient29"
       x1="91.748405"
       y1="93.882004"
       x2="128.43849"
       y2="74.752747"
       gradientUnits="userSpaceOnUse"
       gradientTransform="translate(-4.8935546e-6)" /><radialGradient
       inkscape:collect="always"
       xlink:href="#linearGradient58"
       id="radialGradient59"
       cx="95.559235"
       cy="70.357437"
       fx="95.559235"
       fy="70.357437"
       r="17.719597"
       gradientTransform="matrix(0.35683753,0.2258036,-0.31577445,0.50004476,83.645107,8.602058)"
       gradientUnits="userSpaceOnUse" /><radialGradient
       inkscape:collect="always"
       xlink:href="#linearGradient177159"
       id="radialGradient61"
       cx="85.516808"
       cy="79.20536"
       fx="85.516808"
       fy="79.20536"
       r="4.9409614"
       gradientTransform="matrix(1,0,0,0.39840909,-4.8935546e-6,47.649231)"
       gradientUnits="userSpaceOnUse" /></defs><g
     inkscape:label="Layer 1"
     inkscape:groupmode="layer"
     id="layer1"
     transform="translate(-23.927092,-43.127085)"><g
       id="g64"
       inkscape:export-filename="bombcell_logo_crop.png"
       inkscape:export-xdpi="500"
       inkscape:export-ydpi="500"><g
         id="g65"
         inkscape:export-filename="bombcell_logo_crop.png"
         inkscape:export-xdpi="500"
         inkscape:export-ydpi="500"><path
           style="font-variation-settings:normal;fill:url(#linearGradient27);fill-opacity:1;stroke:#000000;stroke-width:0.5;stroke-linecap:butt;stroke-linejoin:miter;stroke-miterlimit:4;stroke-dasharray:none;stroke-dashoffset:0;stroke-opacity:1;stop-color:#000000"
           d="M 78.069547,88.115051 C 74.657977,85.307673 66.453436,79.93699 66.781276,77.059138 c -0.107173,-5.19929 0.413345,-4.982843 -0.787459,-8.292087 -0.37943,-0.45721 -1.09126,-0.742294 -1.06853,0.409702 0.35533,3.906654 0.40588,4.280013 -0.38347,5.560524 -1.50174,1.860875 -3.93237,0.06033 -9.57696,-2.612648 -0.36817,-0.174347 -0.96065,-0.213102 -0.39109,0.428585 0.56956,0.641686 3.500139,1.935618 1.900884,3.244031 -0.483552,0.212038 -1.924483,0.710597 -5.0242,-0.303434 -0.44721,-0.260814 -1.87064,-0.521692 -0.25992,0.688168 7.194948,2.489409 6.424967,-0.936952 9.192716,0.384233 6.800525,3.24623 6.208038,2.958225 14.93784,16.968419"
           id="path175780-9"
           sodipodi:nodetypes="cccccszcccac"
           inkscape:export-filename="bombcell_logo_crop.svg"
           inkscape:export-xdpi="96"
           inkscape:export-ydpi="96" /><path
           style="font-variation-settings:normal;fill:url(#linearGradient25);fill-opacity:1;stroke:#000000;stroke-width:0.5;stroke-linecap:butt;stroke-linejoin:miter;stroke-miterlimit:4;stroke-dasharray:none;stroke-dashoffset:0;stroke-opacity:1;stop-color:#000000"
           d="m 74.672277,90.363173 c 0,0 -0.906446,1.474452 -9.6087,1.978148 -7.566221,0.988329 -7.188781,0.635324 -14.626234,-1.09527 -0.54183,-0.0236 -0.61851,0.456903 -0.1514,0.813953 1.568414,1.198881 3.977203,1.113132 3.762057,2.756975 -0.215146,1.643843 0.237627,1.702908 -7.285994,6.662271 -1.098393,0.72403 -1.2596,1.52066 0.0572,1.67074 7.704471,-2.26353 7.147096,-5.545337 11.612681,-7.529679 2.818547,-1.252459 3.63975,-0.8057 6.13558,-0.46077 2.49583,0.34493 8.88161,0.89894 8.88161,0.89894"
           id="path175776-8"
           sodipodi:nodetypes="czcszsszzc" /><path
           style="font-variation-settings:normal;fill:url(#linearGradient29);stroke:#000000;stroke-width:0.5;stroke-linecap:butt;stroke-linejoin:miter;stroke-miterlimit:4;stroke-dasharray:none;stroke-dashoffset:0;stroke-opacity:1;stop-color:#000000"
           d="m 92.091333,86.516772 c 0,0 4.232077,-0.506845 6.184763,-1.296791 8.092664,-3.273832 11.727624,-4.520043 17.906464,-5.139142 0.9583,-0.09602 2.78458,-0.251557 2.88011,0.230208 0.0955,0.481766 -1.79708,1.272342 -2.84569,1.377923 -5.08344,0.511835 -4.75271,0.510275 -6.94472,1.386308 -3.36888,1.346367 -6.14974,3.851136 -9.20183,5.812456 -1.90606,1.224863 -5.689381,3.71902 -5.689381,3.71902"
           id="path175782-1"
           sodipodi:nodetypes="csazsaac" /><path
           style="fill:url(#radialGradient61);fill-opacity:1;stroke:#000000;stroke-width:0.5;stroke-linecap:butt;stroke-linejoin:miter;stroke-dasharray:none;stroke-opacity:1"
           d="m 80.831161,79.029954 c 2.558859,-1.90432 6.663611,-2.177748 9.336131,-0.03603 -0.16183,0.506103 -0.2881,1.433268 -1.2279,1.659699 -2.09198,0.117045 -5.173539,0.692868 -6.964984,-0.312976 -0.607006,-0.353389 -1.217456,-0.601942 -1.143247,-1.310693 z"
           id="path171607-3"
           sodipodi:nodetypes="cccczc" /><path
           style="fill:#d4aa00;stroke:#000000;stroke-width:0.5;stroke-linecap:butt;stroke-linejoin:miter;stroke-dasharray:none;stroke-opacity:1"
           d="m 84.6371,79.105287 c -0.421016,-1.361158 -0.163536,-4.082028 0.957285,-5.613298 1.565451,-2.138724 5.119541,-1.842198 7.066164,-3.640386 2.17083,-2.005301 1.536036,-4.36611 2.293902,-5.618678 0.322307,-0.532691 1.308785,0.128267 1.321439,0.614105 0.05891,2.261875 -0.702658,4.653931 -2.189293,6.310731 -1.697831,1.892175 -5.121031,1.437121 -6.892382,3.260561 -0.643766,0.662697 -0.94482,1.630428 -1.112903,2.539218 -0.130824,0.707338 0.08637,1.494274 0.101986,2.155632 0.007,0.295869 -1.381356,0.525056 -1.546197,-0.0079 z"
           id="path60-5"
           sodipodi:nodetypes="sasssaaasss" /><path
           d="m 97.858304,95.878943 c -0.04523,-0.05252 -0.06762,-0.105079 -0.06716,-0.157668 0.0043,-0.05581 0.02514,-0.09984 0.0627,-0.132083 l 3.833386,-3.28898 c 0.0488,-0.04192 0.0991,-0.05566 0.15073,-0.04125 0.0586,0.01495 0.10569,0.04305 0.14122,0.08433 l 0.79476,0.922951 c 0.18091,0.210101 0.32125,0.422406 0.421,0.636908 0.10299,0.218255 0.12857,0.437685 0.0768,0.658291 -0.0486,0.224358 -0.20443,0.449393 -0.46752,0.675107 -0.23676,0.203143 -0.47471,0.32902 -0.71385,0.377629 -0.23216,0.04914 -0.44157,0.02983 -0.62821,-0.05793 0.055,0.155001 0.0803,0.309506 0.0756,0.463511 -0.005,0.154007 -0.048,0.3086 -0.12995,0.463782 -0.082,0.155182 -0.22076,0.316606 -0.41619,0.484283 l -0.10148,0.08706 c -0.28562,0.245067 -0.555,0.391368 -0.80811,0.438923 -0.253119,0.04755 -0.489949,0.01916 -0.710492,-0.08518 -0.220552,-0.104342 -0.419667,-0.25969 -0.597354,-0.466041 z m 0.518335,-0.09244 0.697825,0.810397 c 0.209994,0.243869 0.44053,0.378785 0.6916,0.404745 0.258066,0.02648 0.531786,-0.08441 0.821166,-0.332697 l 0.0958,-0.08222 c 0.29314,-0.251511 0.43658,-0.49853 0.43032,-0.741059 0.001,-0.241983 -0.10393,-0.484937 -0.3139,-0.728806 l -0.69781,-0.8104 z m 2.051981,-1.760572 0.62998,0.731609 c 0.22616,0.262631 0.44703,0.409093 0.66264,0.439392 0.21559,0.0303 0.45681,-0.06902 0.72364,-0.297957 0.17664,-0.151551 0.28287,-0.301398 0.31866,-0.449544 0.0358,-0.148145 0.0205,-0.294882 -0.0458,-0.44021 -0.0625,-0.14855 -0.1617,-0.301618 -0.29739,-0.459193 l -0.6106,-0.709097 z m 0.89805,5.769114 c -0.20348,-0.149698 -0.35278,-0.339426 -0.44789,-0.569172 -0.0922,-0.233733 -0.12893,-0.475843 -0.11024,-0.726329 0.0256,-0.251534 0.11197,-0.476857 0.25895,-0.675971 l 0.47627,-0.645128 c 0.14995,-0.203099 0.33653,-0.351583 0.55976,-0.44546 0.23014,-0.09492 0.46922,-0.131049 0.71722,-0.108377 0.25198,0.02561 0.48171,0.114724 0.68919,0.267352 0.20348,0.149693 0.35277,0.339415 0.44788,0.569165 0.10206,0.228705 0.1432,0.464841 0.12345,0.708409 -0.0198,0.243569 -0.10758,0.470882 -0.26334,0.681945 l -0.47628,0.645128 c -0.14406,0.195136 -0.33264,0.342158 -0.56572,0.441058 -0.2331,0.09889 -0.47711,0.137535 -0.73203,0.115915 -0.24801,-0.0227 -0.47375,-0.108855 -0.67722,-0.258535 z m 0.26459,-0.358412 c 0.13965,0.102727 0.29178,0.159343 0.45641,0.169852 0.16756,0.0071 0.32937,-0.02486 0.48541,-0.09457 0.15602,-0.06957 0.28255,-0.170063 0.37956,-0.301479 l 0.47628,-0.645129 c 0.097,-0.131414 0.15424,-0.279814 0.17168,-0.445198 0.0214,-0.162449 7.3e-4,-0.322073 -0.0621,-0.478873 -0.0559,-0.157848 -0.15362,-0.288136 -0.29325,-0.390866 -0.13963,-0.102727 -0.29324,-0.157356 -0.46082,-0.163877 -0.16463,-0.01048 -0.32349,0.01704 -0.47658,0.08263 -0.15308,0.06559 -0.27813,0.164087 -0.37515,0.295504 l -0.47628,0.645129 c -0.097,0.131416 -0.15572,0.281805 -0.17609,0.451171 -0.0203,0.169367 -0.002,0.33299 0.0533,0.490821 0.0628,0.156801 0.162,0.285099 0.29764,0.384893 z m 2.17237,1.787867 c -0.0602,-0.023 -0.1063,-0.0618 -0.1384,-0.1165 -0.0274,-0.0529 -0.0323,-0.10243 -0.0146,-0.14862 l 1.12208,-2.924216 c 0.0213,-0.05543 0.058,-0.08905 0.11033,-0.100836 0.0587,-0.01463 0.11811,-0.01046 0.17829,0.01259 0.0602,0.02301 0.10486,0.05865 0.13411,0.106913 0.031,0.04364 0.0359,0.09319 0.0146,0.148625 l -0.11965,0.311825 c 0.13008,-0.10388 0.29188,-0.179742 0.48537,-0.227585 0.19991,-0.05069 0.41324,-0.03268 0.64001,0.05405 0.23141,0.0885 0.40791,0.230165 0.52952,0.425002 0.12161,0.194838 0.18506,0.409818 0.19038,0.644941 0.21074,-0.189582 0.43225,-0.303524 0.66454,-0.341827 0.2387,-0.04116 0.45755,-0.02367 0.65657,0.05243 0.199,0.07611 0.36694,0.198607 0.50381,0.367497 0.1415,0.17066 0.23056,0.374234 0.26718,0.610741 0.0383,0.23188 0.004,0.48873 -0.10463,0.77052 l -0.70462,1.8363 c -0.0177,0.0462 -0.0568,0.0789 -0.11728,0.0982 -0.0559,0.021 -0.11615,0.0192 -0.18094,-0.006 -0.0601,-0.023 -0.10629,-0.0618 -0.1384,-0.11649 -0.0275,-0.053 -0.0323,-0.10243 -0.0146,-0.14862 l 0.70462,-1.83632 c 0.0762,-0.19863 0.0998,-0.37767 0.0708,-0.53711 -0.0291,-0.15945 -0.0937,-0.295387 -0.19378,-0.407857 -0.0938,-0.115312 -0.20309,-0.196862 -0.32805,-0.244651 -0.13422,-0.05133 -0.27711,-0.06624 -0.42865,-0.04473 -0.14692,0.02327 -0.28685,0.08366 -0.41979,0.181149 -0.12654,0.09462 -0.22349,0.229735 -0.29085,0.405279 l -0.72057,1.87787 c -0.023,0.06 -0.0653,0.0942 -0.12689,0.10247 -0.0569,0.0101 -0.11315,0.005 -0.16867,-0.0169 -0.0508,-0.0194 -0.0965,-0.0528 -0.13678,-0.1 -0.0356,-0.0454 -0.042,-0.0981 -0.0188,-0.15821 l 0.7179,-1.870944 c 0.0639,-0.1663 0.0836,-0.328294 0.0591,-0.485964 -0.0244,-0.15767 -0.0826,-0.296469 -0.17457,-0.416403 -0.0874,-0.118163 -0.20275,-0.204678 -0.34623,-0.259547 -0.13421,-0.05133 -0.27709,-0.06624 -0.42863,-0.04473 -0.15155,0.02151 -0.29469,0.08331 -0.42939,0.185423 -0.12832,0.09926 -0.22881,0.243592 -0.30149,0.432996 l -0.70463,1.836299 c -0.0177,0.0462 -0.0568,0.0789 -0.11728,0.0982 -0.0559,0.021 -0.11615,0.0192 -0.18094,-0.006 z m 6.69662,2.54914 c -0.19866,-0.12141 -0.41184,-0.16764 -0.55996,-0.32447 -0.14812,-0.15683 -0.24087,-0.31948 -0.27824,-0.488 l -0.0837,0.31565 c -0.0126,0.0478 -0.0457,0.0852 -0.0989,0.11204 -0.0532,0.0268 -0.11103,0.0321 -0.17332,0.0157 -0.0622,-0.0165 -0.11232,-0.0501 -0.15009,-0.10108 -0.0329,-0.0496 -0.043,-0.0984 -0.0305,-0.14621 l 1.35362,-5.107642 c 0.0152,-0.05739 0.0482,-0.09474 0.0989,-0.112039 0.0567,-0.02081 0.11631,-0.023 0.1786,-0.0065 0.0671,0.01771 0.11773,0.04901 0.15198,0.09389 0.0403,0.04135 0.0529,0.09073 0.0377,0.148114 l -0.63689,2.403187 c 0.11822,-0.11718 0.27094,-0.20988 0.4582,-0.27811 0.19332,-0.0717 0.40736,-0.0766 0.64213,-0.0146 0.23477,0.062 0.4315,0.18051 0.5902,0.35549 0.16474,0.17146 0.27736,0.37519 0.33785,0.61122 0.0665,0.23249 0.0668,0.47309 9.9e-4,0.72178 l -0.20532,0.77475 c -0.0621,0.23435 -0.18093,0.44091 -0.35647,0.61969 -0.17076,0.18005 -0.36907,0.30933 -0.59493,0.38782 -0.2246,0.0737 -0.47897,0.14345 -0.68187,0.0194 z m 0.0278,-0.4532 c 0.1629,0.0431 0.32283,0.0392 0.4798,-0.0114 0.15824,-0.0555 0.29708,-0.14411 0.41656,-0.26608 0.11947,-0.12194 0.20012,-0.26183 0.24194,-0.41966 l 0.20533,-0.77476 c 0.0419,-0.15782 0.0404,-0.31683 -0.004,-0.47705 -0.0448,-0.1602 -0.12273,-0.30106 -0.23405,-0.42258 -0.11007,-0.1263 -0.24895,-0.21161 -0.41664,-0.25591 -0.14374,-0.038 -0.29281,-0.0365 -0.44725,0.005 -0.15316,0.0363 -0.2906,0.11003 -0.41234,0.22114 -0.12172,0.11111 -0.20857,0.26472 -0.26054,0.4608 l -0.26426,0.99715 c -0.0191,0.0718 -0.005,0.17511 0.0408,0.31015 0.0524,0.13152 0.13349,0.26042 0.24356,0.38672 0.11134,0.12152 0.24846,0.2038 0.41135,0.24683 z m 3.29487,1.29224 c -0.31655,-0.0823 -0.56234,-0.21005 -0.73736,-0.38334 -0.17503,-0.17329 -0.28607,-0.37596 -0.33311,-0.608 -0.047,-0.23204 -0.0369,-0.47732 0.0302,-0.73585 l 0.19848,-0.76121 c 0.0675,-0.25852 0.17591,-0.47825 0.32551,-0.65917 0.1544,-0.17969 0.35032,-0.30256 0.58776,-0.36865 0.24225,-0.0648 0.52163,-0.0561 0.83818,0.0261 0.20144,0.0524 0.36964,0.12423 0.50459,0.2155 0.14099,0.0878 0.2429,0.17815 0.30571,0.27116 0.0676,0.0943 0.0926,0.17488 0.0752,0.2419 -0.009,0.0335 -0.0276,0.0669 -0.0568,0.10024 -0.0231,0.0298 -0.0546,0.0523 -0.0944,0.0675 -0.035,0.0165 -0.0717,0.0197 -0.11007,0.01 -0.0432,-0.0113 -0.088,-0.0459 -0.13423,-0.10391 -0.0403,-0.0615 -0.10273,-0.12638 -0.18745,-0.1944 -0.0847,-0.068 -0.21576,-0.1251 -0.39322,-0.17122 -0.31175,-0.0811 -0.571,-0.059 -0.77777,0.0662 -0.20071,0.12164 -0.33915,0.32846 -0.4153,0.6205 l -0.19847,0.76121 c -0.0762,0.29202 -0.0569,0.5424 0.0576,0.7511 0.12063,0.20516 0.33921,0.34887 0.65576,0.43115 0.18226,0.0473 0.32936,0.0627 0.44131,0.0457 0.11321,-0.0217 0.20181,-0.0472 0.2658,-0.0766 0.07,-0.0329 0.12903,-0.0431 0.177,-0.0307 0.0432,0.0113 0.076,0.0325 0.0986,0.0639 0.0273,0.0327 0.0438,0.0677 0.0494,0.10489 0.0105,0.0385 0.0106,0.077 5.2e-4,0.11518 -0.0163,0.0622 -0.0775,0.12044 -0.18379,0.17459 -0.10505,0.0494 -0.24359,0.0798 -0.4156,0.0914 -0.16721,0.0128 -0.35872,-0.009 -0.57454,-0.065 z m 3.02969,0.89919 c -0.2962,-0.0986 -0.54068,-0.24255 -0.73345,-0.43186 -0.18806,-0.18776 -0.315,-0.40211 -0.38082,-0.64302 -0.0596,-0.24406 -0.0447,-0.49984 0.0447,-0.76734 l 0.26096,-0.78139 c 0.0783,-0.23466 0.21157,-0.43019 0.39963,-0.58661 0.18964,-0.1611 0.40514,-0.26668 0.64649,-0.31671 0.24606,-0.0485 0.49132,-0.032 0.7358,0.0494 0.23509,0.0782 0.43255,0.20655 0.5924,0.38492 0.16613,0.17524 0.27819,0.37941 0.33616,0.61251 0.058,0.2331 0.0446,0.47636 -0.04,0.72979 -0.0596,0.17833 -0.13321,0.29722 -0.22098,0.35665 -0.0877,0.0595 -0.1818,0.0829 -0.28211,0.0704 -0.0941,-0.0157 -0.19275,-0.0407 -0.29619,-0.0752 l -1.59385,-0.53053 -0.087,0.26046 c -0.0941,0.28158 -0.0674,0.53814 0.0799,0.7697 0.14731,0.23156 0.37613,0.39897 0.68644,0.50225 0.18806,0.0626 0.34165,0.0877 0.46075,0.0752 0.11911,-0.0125 0.21472,-0.0328 0.28681,-0.061 0.0767,-0.0266 0.14104,-0.0313 0.19276,-0.0141 0.0376,0.0125 0.0659,0.0375 0.0847,0.0751 0.0251,0.0345 0.0392,0.0704 0.0424,0.10795 0.008,0.0391 0.007,0.0727 -0.002,0.1009 -0.0173,0.0516 -0.0807,0.1009 -0.19041,0.14782 -0.10971,0.047 -0.25389,0.072 -0.43256,0.0751 -0.1771,-10e-4 -0.37378,-0.0385 -0.59005,-0.11038 z m -0.41841,-2.26688 1.41048,0.4695 c 0.14106,0.0469 0.23978,0.0642 0.29621,0.0517 0.0579,-0.0172 0.10343,-0.0751 0.13634,-0.17363 0.0502,-0.15018 0.0595,-0.30349 0.0282,-0.45994 -0.0297,-0.16113 -0.0964,-0.30585 -0.19981,-0.43414 -0.10186,-0.13299 -0.23978,-0.22843 -0.41374,-0.28635 -0.15987,-0.0533 -0.32128,-0.0626 -0.48427,-0.0282 -0.15829,0.036 -0.29855,0.10399 -0.4208,0.2041 -0.12225,0.10012 -0.21001,0.22994 -0.2633,0.38952 z m 2.53735,2.98217 c -0.0603,-0.0225 -0.10674,-0.0611 -0.13924,-0.11551 -0.0278,-0.0527 -0.033,-0.10219 -0.0156,-0.1485 l 1.85753,-4.94725 c 0.0209,-0.0556 0.0574,-0.0895 0.1096,-0.10162 0.0586,-0.015 0.11804,-0.0111 0.17838,0.0114 0.0649,0.0244 0.11224,0.0605 0.14183,0.10856 0.0359,0.0451 0.0435,0.0956 0.0226,0.15111 l -1.85753,4.94725 c -0.0174,0.0463 -0.0563,0.0793 -0.11657,0.099 -0.0557,0.0214 -0.11601,0.0199 -0.18096,-0.005 z m 1.45146,0.53143 c -0.058,-0.028 -0.10073,-0.0705 -0.12814,-0.12766 -0.0229,-0.055 -0.0235,-0.10477 -10e-4,-0.1493 l 1.88764,-4.7706 c 0.0259,-0.0534 0.0653,-0.0839 0.11841,-0.0913 0.0597,-0.01 0.11858,-4.2e-4 0.1766,0.0275 0.0625,0.0301 0.10628,0.0704 0.13138,0.12096 0.0317,0.0483 0.0346,0.0991 0.009,0.15256 l -1.88763,4.7706 c -0.0216,0.0446 -0.0632,0.0739 -0.12511,0.0881 -0.0574,0.0163 -0.11735,0.009 -0.17984,-0.0208 z"
           id="text172474-3"
           style="font-size:9.525px;line-height:1.25;font-family:Dosis;-inkscape-font-specification:'Dosis, Normal';stroke:#000000;stroke-width:0.264583;stroke-opacity:1"
           aria-label="Bombcell"
           sodipodi:nodetypes="ccccccsccsccsssssssccscsscccccsssccsccscccsccscscsscscccssccscssssccccccccsccccssccscccccsccsscscccccccccccsscsccccssccssccccsccccscccsccssccsscscscssccccccsscscccccccccccscssccccscccccccccccsccscssscccsssscsccssccccccsccscssccccccccccccccccccscccccc" /><path
           style="font-variation-settings:normal;fill:url(#linearGradient1);fill-opacity:1;stroke:#000000;stroke-width:0.5;stroke-linecap:butt;stroke-linejoin:miter;stroke-miterlimit:4;stroke-dasharray:none;stroke-dashoffset:0;stroke-opacity:1;stop-color:#000000"
           d="m 80.801473,83.471278 c -5.870425,2.313568 -7.745974,5.732185 -9.592886,12.577903 1.491558,5.975089 6.815704,11.131219 12.699847,11.727059 7.765958,-1.00666 11.019478,-4.46716 12.735218,-10.631089 0.55383,-6.680655 -1.82898,-10.794959 -6.60759,-13.439671 -0.0364,-1.566034 -0.0469,-2.335492 0.0619,-4.443843 -2.34425,1.912542 -6.47177,1.881937 -9.243544,-0.04616 -0.06784,2.595081 -0.08083,2.586809 -0.05303,4.255796 z"
           id="path175766-7"
           sodipodi:nodetypes="ccccccccc" /><path
           style="font-variation-settings:normal;fill:url(#linearGradient21);stroke:#000000;stroke-width:0.5;stroke-linecap:round;stroke-linejoin:miter;stroke-miterlimit:4;stroke-dasharray:none;stroke-dashoffset:0;stroke-opacity:1;stop-color:#000000"
           d="m 78.704054,105.97818 c 1.924064,1.65223 3.503081,4.27599 3.956246,6.31503 0.192191,7.47348 -2.852462,9.22184 -2.598586,16.90582 0.01277,0.38637 0.674268,0.23082 0.634604,-0.26827 0.0028,-1.91305 1.086848,-3.75627 1.724032,-4.04066 0.876918,-0.39139 1.766405,2.41488 2.011326,3.13694 0.275423,1.69979 -0.261597,3.8727 0.434116,6.70553 0.361039,1.47009 0.954677,1.0202 0.87477,-0.40872 -0.155222,-2.77571 0.425473,-3.71402 0.383716,-5.57692 -0.102124,-4.55613 -2.005827,-8.97232 -1.548667,-13.58381 0.45716,-4.61149 7.468361,-9.64899 7.468361,-9.64899"
           id="path175772-9"
           sodipodi:nodetypes="ccssscssazc" /><path
           style="font-variation-settings:normal;fill:url(#linearGradient2);fill-opacity:1;stroke:#000000;stroke-width:0.5;stroke-linecap:round;stroke-linejoin:round;stroke-miterlimit:4;stroke-dasharray:none;stroke-dashoffset:0;stroke-opacity:1;stop-color:#000000"
           d="m 71.403283,95.983692 c -0.689763,1.991668 -3.845478,3.934441 -7.094313,7.247638 l -5.084402,4.74446 c -2.372592,3.68058 -6.174778,7.39485 -6.92641,9.00451 -0.971453,2.0804 -0.177065,2.76505 0.614497,1.974 1.36774,-1.36686 6.307686,-7.91836 10.037679,-11.35983 4.091279,-3.77481 4.4217,-3.52686 12.993295,-3.93525"
           id="path175774-8"
           sodipodi:nodetypes="cccsssc" /><path
           style="font-variation-settings:normal;fill:url(#linearGradient15);fill-opacity:1;stroke:#000000;stroke-width:0.5;stroke-linecap:round;stroke-linejoin:miter;stroke-miterlimit:4;stroke-dasharray:none;stroke-dashoffset:0;stroke-opacity:1;stop-color:#000000"
           d="m 81.598344,106.06858 c 0,0 9.096478,-1.11644 10.814158,-0.669 7.04815,1.06492 8.203908,1.86972 10.110028,4.9934 2.57444,4.21891 2.89638,6.2117 3.63276,6.195 0.42799,-0.01 0.45526,-1.96227 -0.51166,-3.9601 -3.17235,-6.55464 8.35382,-4.08925 12.83738,-3.02867 1.85052,0.4722 2.68126,0.74081 1.45977,-0.72729 -4.27621,-5.13957 -16.21603,0.71445 -23.329588,-13.675559"
           id="path175770-6"
           sodipodi:nodetypes="ccsssssc" /><path
           style="fill:url(#radialGradient59);fill-rule:evenodd;stroke:#000000;stroke-width:0.5;stroke-linecap:butt;stroke-linejoin:miter;stroke-dasharray:none;stroke-opacity:1"
           d="m 92.455828,67.189732 -5.864757,0.374623 4.946729,-1.840053 -3.123242,-0.226545 3.284162,-0.755194 -3.879306,-2.312239 4.43535,0.765181 -1.865394,-2.029623 2.661962,1.173701 -1.425937,-3.881756 2.904091,3.06499 0.900423,-3.35022 1.026908,3.280911 3.49342,-3.415905 -1.257824,4.023609 2.714947,-1.377202 -2.221392,2.770022 4.730382,-0.299869 -3.61681,1.822987 2.13453,1.115605 -3.809562,0.209998 3.755432,3.101343 -4.328912,-1.658405 0.906124,2.848293 -1.924085,-2.281176 0.728496,4.317112 -2.523155,-3.77805 -1.441936,2.698372 0.449146,-3.196338 -3.191338,3.018988 1.63966,-3.072095 -2.51236,1.269674 z"
           id="path41" /></g></g></g></svg>
